<svg width="24" height="24" viewBox="0 0 24 24" fill="none" xmlns="http://www.w3.org/2000/svg">
<rect width="24" height="24" rx="8" fill="url(#paint0_linear_11482_4680)"/>
<path d="M9.97211 11.9824C9.97211 10.3652 11.2831 9.0542 12.9003 9.0542C13.4441 9.0542 13.9515 9.20481 14.3882 9.46357L16.9191 5.17684C15.7416 4.4794 14.3679 4.07812 12.9003 4.07812C8.53479 4.07812 4.99609 7.61687 4.99609 11.9824C4.99609 14.8803 6.55672 17.4124 8.88149 18.789L11.4125 14.5023C10.5513 13.9929 9.97211 13.0569 9.97211 11.9834V11.9824Z" fill="white"/>
<path d="M12.9009 14.911C14.5181 14.911 15.8291 13.6 15.8291 11.9827C15.8291 10.9093 15.2499 9.9733 14.3888 9.46387L11.4141 14.5026C11.8507 14.7603 12.3581 14.912 12.9019 14.912L12.9009 14.911Z" fill="#97C1FF"/>
<path d="M14.5523 14.8742L16.9397 18.3008C15.7329 19.075 14.3441 19.4834 12.8997 19.4834C11.6928 19.4834 10.5042 19.1923 9.43982 18.6374L11.5665 15.0349C11.987 15.2189 12.4408 15.3149 12.8997 15.3149C13.4849 15.3149 14.0489 15.1633 14.5513 14.8742M14.6584 14.3203C14.1682 14.6892 13.5607 14.9106 12.8997 14.9106C12.3559 14.9106 11.8485 14.76 11.4118 14.5012L8.88086 18.788C10.0584 19.4854 11.432 19.8867 12.8997 19.8867C14.619 19.8867 16.2079 19.3358 17.5048 18.4049L14.6574 14.3203H14.6584Z" fill="white"/>
<defs>
<linearGradient id="paint0_linear_11482_4680" x1="3.51533" y1="20.4853" x2="20.4853" y2="3.51467" gradientUnits="userSpaceOnUse">
<stop stop-color="#0099FF"/>
<stop offset="1" stop-color="#000099"/>
</linearGradient>
</defs>
</svg>
