<svg width="100" height="69" viewBox="0 0 100 69" fill="none" xmlns="http://www.w3.org/2000/svg">
<path d="M48.125 26.1094C48.0156 25.0937 47.9531 24.0469 47.9531 23C47.9531 21.9375 48.0156 20.8906 48.125 19.8594H19.4531L17.0312 10.6562C16.6719 9.28125 15.4219 8.32812 14.0156 8.32812H3.125C1.40625 8.32812 0 9.73438 0 11.4531C0 13.1719 1.40625 14.5781 3.125 14.5781H11.6094L14.0312 23.7969C14.0312 23.8125 14.0469 23.8125 14.0469 23.8125L21.6406 53.0938C22 54.4688 23.25 55.4219 24.6719 55.4219H25.0469C24.5938 56.5469 24.3438 57.7656 24.3438 59.0469C24.3438 64.4844 28.7656 68.9062 34.2031 68.9062C39.6406 68.9062 44.0625 64.4844 44.0625 59.0469C44.0625 57.7656 43.8125 56.5469 43.3594 55.4219H50.7969C50.3437 56.5469 50.0938 57.7656 50.0938 59.0469C50.0938 64.4844 54.5156 68.9062 59.9531 68.9062C65.3906 68.9062 69.8125 64.4844 69.8125 59.0469C69.8125 57.7656 69.5625 56.5469 69.1094 55.4219H69.4844C70.9062 55.4219 72.1562 54.4688 72.5156 53.0938L72.8438 51.8281C69.8125 51.3906 66.9375 50.4688 64.2812 49.1719C55.5 44.8594 49.2031 36.25 48.125 26.1094ZM37.8125 59.0469C37.8125 61.0312 36.2031 62.6562 34.2031 62.6562C32.2188 62.6562 30.5938 61.0312 30.5938 59.0469C30.5938 57.0469 32.2188 55.4219 34.2031 55.4219C36.2031 55.4219 37.8125 57.0469 37.8125 59.0469ZM63.5625 59.0469C63.5625 61.0312 61.9375 62.6562 59.9531 62.6562C57.9531 62.6562 56.3438 61.0312 56.3438 59.0469C56.3438 57.0469 57.9531 55.4219 59.9531 55.4219C61.9375 55.4219 63.5625 57.0469 63.5625 59.0469Z" fill="#6D727C"/>
<path d="M77.0937 0.09375C64.4687 0.09375 54.2031 10.375 54.2031 23C54.2031 35.625 64.4687 45.8906 77.0937 45.8906C89.7343 45.8906 100 35.625 100 23C100 10.375 89.7343 0.09375 77.0937 0.09375ZM83.8906 26.125H80.2187V29.7969C80.2187 31.5156 78.8281 32.9219 77.0937 32.9219C75.375 32.9219 73.9687 31.5156 73.9687 29.7969V26.125H70.3125C68.5781 26.125 67.1875 24.7188 67.1875 23C67.1875 21.2656 68.5781 19.875 70.3125 19.875H73.9687V16.2031C73.9687 14.4688 75.375 13.0781 77.0937 13.0781C78.8281 13.0781 80.2187 14.4688 80.2187 16.2031V19.875H83.8906C85.625 19.875 87.0156 21.2656 87.0156 23C87.0156 24.7188 85.625 26.125 83.8906 26.125Z" fill="#6D727C"/>
</svg>
