<?xml version="1.0" encoding="UTF-8"?>
<svg id="Layer_2" data-name="Layer 2" xmlns="http://www.w3.org/2000/svg" viewBox="0 0 143.41 79.96">
  <defs>
    <style>
      .cls-1 {
        fill: #fe7838;
      }

      .cls-1, .cls-2, .cls-3 {
        stroke-width: 0px;
      }

      .cls-2 {
        fill: #fff;
      }

      .cls-3 {
        fill: #0e72ed;
      }
    </style>
  </defs>
  <g id="Layer_2-2" data-name="Layer 2">
    <path class="cls-3" d="M143.41,29.59v20.97c0,5.24-.58,9.73-1.74,13.46-1.17,3.74-3.09,6.8-5.75,9.17-2.67,2.38-6.24,4.11-10.7,5.17-4.47,1.07-9.95,1.6-16.46,1.6H20.01v-2.84h8.14c4.66,0,8.44-3.78,8.44-8.44l2.83-5.7,67.31-.05c3.2,0,5.82-.27,7.86-.8,2.04-.53,3.66-1.41,4.88-2.62,1.21-1.21,2.06-2.84,2.54-4.88.49-2.04.73-4.61.73-7.71v-13.83c0-3.01-.24-5.54-.73-7.58-.48-2.03-1.33-3.68-2.54-4.95-1.22-1.26-2.84-2.13-4.88-2.62-2.04-.48-4.66-.72-7.86-.72h-26.67c-2.21,0-4-1.79-4-4V.04h32.7c6.51,0,11.99.56,16.46,1.67,4.46,1.12,8.03,2.87,10.7,5.24,2.66,2.38,4.58,5.44,5.75,9.17,1.16,3.74,1.74,8.23,1.74,13.47Z"/>
    <g>
      <path class="cls-1" d="M27.81,21.52H11.6c-2.4,0-4.35,1.96-4.35,4.35v8.54c0,2.4,1.95,4.35,4.35,4.35h16.21c2.4,0,4.35-1.95,4.35-4.35v-8.54c0-2.39-1.95-4.35-4.35-4.35ZM30.16,34.41c0,1.3-1.06,2.35-2.35,2.35H11.6c-1.29,0-2.35-1.05-2.35-2.35v-8.54c0-1.29,1.06-2.35,2.35-2.35h16.21c1.29,0,2.35,1.06,2.35,2.35v8.54Z"/>
      <path class="cls-1" d="M49.23,0h-28.12C12.57,0,5.63,6.95,5.63,15.48c0,.05.01.1.02.15-3.35,1.94-5.65,5.55-5.65,9.7v43.35c0,6.21,5.05,11.26,11.26,11.26h16.89c.28,0,.55-.01.82-.03h.02c5.82-.43,10.43-5.3,10.43-11.23V25.33c0-4.08-2.23-7.63-5.49-9.61.64-3.74,2.56-6.97,5.28-9.26,2.71-2.29,6.22-3.65,10.02-3.65,8.56,0,15.52,6.97,15.52,15.52v25.34l-5.73-4.23c-.48-.36-1.15-.37-1.64-.02l-7.18,4.98-2.94-2.04c-.64-.44-1.52-.29-1.96.35-.45.64-.3,1.51.35,1.95l3.75,2.61c.48.34,1.12.34,1.6,0l7.16-4.96,7.16,5.27c.25.18.54.28.84.28.21,0,.43-.05.63-.16.47-.24.77-.72.77-1.25v-28.12c0-10.1-8.22-18.33-18.33-18.33ZM36.59,25.33v43.35c0,4.66-3.78,8.44-8.44,8.44H11.26c-4.66,0-8.45-3.78-8.45-8.44V25.33c0-4.64,3.79-8.44,8.45-8.44h16.89c4.66,0,8.44,3.8,8.44,8.44Z"/>
      <path class="cls-2" d="M27.81,21.52H11.6c-2.4,0-4.35,1.96-4.35,4.35v8.54c0,2.4,1.95,4.35,4.35,4.35h16.21c2.4,0,4.35-1.95,4.35-4.35v-8.54c0-2.39-1.95-4.35-4.35-4.35ZM30.16,34.41c0,1.3-1.06,2.35-2.35,2.35H11.6c-1.29,0-2.35-1.05-2.35-2.35v-8.54c0-1.29,1.06-2.35,2.35-2.35h16.21c1.29,0,2.35,1.06,2.35,2.35v8.54Z"/>
      <path class="cls-1" d="M27.81,21.52H11.6c-2.4,0-4.35,1.96-4.35,4.35v8.54c0,2.4,1.95,4.35,4.35,4.35h16.21c2.4,0,4.35-1.95,4.35-4.35v-8.54c0-2.39-1.95-4.35-4.35-4.35ZM30.16,34.41c0,1.3-1.06,2.35-2.35,2.35H11.6c-1.29,0-2.35-1.05-2.35-2.35v-8.54c0-1.29,1.06-2.35,2.35-2.35h16.21c1.29,0,2.35,1.06,2.35,2.35v8.54Z"/>
    </g>
  </g>
</svg>