<svg width="80" height="80" viewBox="0 0 80 80" fill="none" xmlns="http://www.w3.org/2000/svg">
<rect width="80" height="80" rx="26.6667" fill="url(#paint0_linear_11484_4730)"/>
<path d="M33.2391 39.9414C33.2391 34.5506 37.609 30.1807 42.9997 30.1807C44.8124 30.1807 46.5037 30.6827 47.9592 31.5452L56.3958 17.2561C52.4706 14.9313 47.8919 13.5938 42.9997 13.5938C28.448 13.5938 16.6523 25.3896 16.6523 39.9414C16.6523 49.6011 21.8544 58.0412 29.6037 62.6302L38.0402 48.341C35.1696 46.6429 33.2391 43.523 33.2391 39.9448V39.9414Z" fill="white"/>
<path d="M43.0001 49.7029C48.3908 49.7029 52.7607 45.3329 52.7607 39.9421C52.7607 36.3639 50.8302 33.244 47.9596 31.5459L38.0439 48.3417C39.4995 49.2008 41.1908 49.7062 43.0034 49.7062L43.0001 49.7029Z" fill="#97C1FF"/>
<path d="M48.5054 49.5807L56.4635 61.0025C52.4406 63.5834 47.8113 64.9446 42.9967 64.9446C38.9738 64.9446 35.0116 63.9743 31.4638 62.1245L38.5527 50.1164C39.9543 50.7296 41.467 51.0497 42.9967 51.0497C44.9475 51.0497 46.8275 50.5443 48.502 49.5807M48.8591 47.7344C47.2251 48.9642 45.2001 49.702 42.9967 49.702C41.184 49.702 39.4927 49.1999 38.0372 48.3374L29.6006 62.6265C33.5257 64.9513 38.1045 66.2889 42.9967 66.2889C48.7277 66.2889 54.0242 64.4527 58.3469 61.3496L48.8558 47.7344H48.8591Z" fill="white"/>
<defs>
<linearGradient id="paint0_linear_11484_4730" x1="11.7178" y1="68.2844" x2="68.2844" y2="11.7156" gradientUnits="userSpaceOnUse">
<stop stop-color="#0099FF"/>
<stop offset="1" stop-color="#000099"/>
</linearGradient>
</defs>
</svg>
