<svg width="362" height="61" viewBox="0 0 362 61" fill="none" xmlns="http://www.w3.org/2000/svg">
<g clip-path="url(#clip0_10976_22024)">
<path d="M73.6267 4.64435C72.1981 3.37629 70.288 2.43996 67.9017 1.84071C65.5101 1.24681 62.578 0.947183 59.0949 0.947183H41.5989V7.99908C41.5989 9.18153 42.5566 10.1393 43.7391 10.1393H58.0087C59.7209 10.1393 61.1227 10.2677 62.2142 10.5245C63.3057 10.7867 64.1725 11.2522 64.8252 11.9263C65.4726 12.6058 65.9274 13.4886 66.1842 14.5748C66.4464 15.6663 66.5748 17.02 66.5748 18.6304V26.0301C66.5748 27.6888 66.4464 29.0638 66.1842 30.1553C65.9274 31.2468 65.4726 32.1189 64.8252 32.7663C64.1725 33.4137 63.3057 33.8846 62.2142 34.1682C61.1227 34.4517 59.7209 34.5962 58.0087 34.5962L21.9948 34.6229V14.4785C21.9948 12.2955 20.8017 10.3961 19.0574 9.3367C19.3998 7.33563 20.4271 5.60743 21.8825 4.38218C23.3324 3.15692 25.2104 2.42926 27.2436 2.42926C31.8236 2.42926 35.5475 6.15853 35.5475 10.7332V24.2912L32.4817 22.028C32.2249 21.8354 31.8664 21.83 31.6042 22.0173L27.7626 24.6818L26.1896 23.5903C25.8471 23.3549 25.3763 23.4351 25.1409 23.7776C24.9001 24.12 24.9804 24.5855 25.3281 24.8209L27.3346 26.2174C27.5914 26.3993 27.9338 26.3993 28.1906 26.2174L32.0216 23.5636L35.8525 26.3832C35.9863 26.4796 36.1414 26.5331 36.3019 26.5331C36.4143 26.5331 36.532 26.5063 36.639 26.4475C36.8905 26.319 37.051 26.0622 37.051 25.7786V10.7332C37.051 5.32921 32.6529 0.925781 27.2436 0.925781H12.1981C7.62884 0.925781 3.91563 4.64435 3.91563 9.20829C3.91563 9.23504 3.92098 9.26179 3.92633 9.28854C2.13393 10.3265 0.90332 12.258 0.90332 14.4785V37.6727C0.90332 40.9953 3.6053 43.6973 6.92793 43.6973H11.6096V43.708H59.0949C62.578 43.708 65.5101 43.4244 67.9017 42.8519C70.288 42.2848 72.1981 41.3592 73.6267 40.0858C75.0499 38.8177 76.0772 37.1805 76.7032 35.1794C77.3239 33.1837 77.6342 30.7813 77.6342 27.9777V16.7578C77.6342 13.9541 77.3239 11.5518 76.7032 9.55072C76.0772 7.555 75.0499 5.91776 73.6267 4.64435ZM6.92793 42.1885C4.43462 42.1885 2.4068 40.166 2.4068 37.6727V14.4785C2.4068 11.9959 4.43462 9.9627 6.92793 9.9627H15.9649C18.4582 9.9627 20.4806 11.9959 20.4806 14.4785V37.6727C20.4806 40.166 18.4582 42.1885 15.9649 42.1885H6.92793Z" fill="white"/>
<path d="M172.824 59.2136C172.824 60.3533 173.418 60.9258 174.617 60.9258H182.246C183.391 60.9258 183.964 60.3533 183.964 59.2136V46.8701H172.824V59.2136Z" fill="white"/>
<path d="M227.699 4.64443C226.27 3.37637 224.366 2.44004 221.974 1.84079C219.588 1.24689 216.65 0.947266 213.172 0.947266H191.364C187.833 0.947266 184.885 1.24689 182.52 1.84079C180.16 2.44004 178.266 3.37637 176.837 4.64443C175.409 5.91784 174.382 7.55508 173.761 9.55615C173.135 11.5519 172.825 13.9542 172.825 16.7579V34.3555H167.025C166.056 34.2859 165.19 33.8633 164.542 33.2159C163.895 32.5685 163.467 31.691 163.397 30.7225V16.7579C163.397 13.9542 163.103 11.5519 162.504 9.55615C161.904 7.55508 160.882 5.91784 159.427 4.64443C157.972 3.37637 156.062 2.44004 153.702 1.84079C151.337 1.24689 148.416 0.947266 144.938 0.947266H105.136C101.599 0.947266 98.6566 1.24689 96.2917 1.84079C93.9268 2.44004 92.0327 3.37637 90.6042 4.64443C89.1756 5.91784 88.1537 7.55508 87.5277 9.55615C86.907 11.5519 86.5967 13.9542 86.5967 16.7579V41.996C86.5967 43.141 87.1906 43.7135 88.3891 43.7135H97.7363V19.4063C97.7363 17.8012 97.8647 16.4368 98.1216 15.3186C98.3837 14.2003 98.8385 13.3229 99.4859 12.6701C100.133 12.0227 101.005 11.5519 102.097 11.2683C103.188 10.9847 104.564 10.8403 106.222 10.8403H119.465V43.7135H128.817C130.01 43.7135 130.604 43.141 130.604 41.996V10.8403H144.317C146.03 10.8403 147.405 10.9847 148.443 11.2683C149.481 11.5519 150.288 12.0227 150.861 12.6701C151.428 13.3229 151.819 14.2003 152.027 15.3186C152.236 16.4368 152.338 17.8012 152.338 19.4063V35.6289C152.338 40.0912 155.96 43.7135 160.422 43.7135H172.825L184.018 43.7081L213.172 43.7135C216.65 43.7135 219.588 43.4245 221.974 42.8574C224.366 42.2849 226.27 41.3646 227.699 40.0912C229.127 38.8178 230.155 37.1805 230.781 35.1795C231.401 33.1838 231.712 30.7814 231.712 27.9778V16.7579C231.712 13.9542 231.401 11.5519 230.781 9.55615C230.155 7.55508 229.127 5.91784 227.699 4.64443ZM220.652 25.7948C220.652 27.4588 220.524 28.8338 220.262 29.9253C220 31.0168 219.55 31.8996 218.897 32.5738C218.25 33.248 217.378 33.7135 216.292 33.9756C215.2 34.2324 213.798 34.3662 212.086 34.3662H192.525V34.3555H183.964V18.8606C183.964 17.2555 184.093 15.8911 184.355 14.7728C184.612 13.6546 185.066 12.7771 185.714 12.1244C186.367 11.477 187.233 11.0061 188.325 10.7225C189.416 10.439 190.791 10.2945 192.455 10.2945H212.086C213.798 10.2945 215.2 10.439 216.292 10.7225C217.378 11.0061 218.25 11.477 218.897 12.1244C219.545 12.7718 220 13.6546 220.262 14.7728C220.524 15.8911 220.652 17.2555 220.652 18.8606V25.7948Z" fill="white"/>
<path d="M295.312 4.64443C293.883 3.37637 291.973 2.44004 289.587 1.84079C287.201 1.24689 284.263 0.947266 280.785 0.947266H258.741C255.21 0.947266 252.262 1.24689 249.903 1.84079C247.538 2.44004 245.644 3.37637 244.215 4.64443C242.786 5.91784 241.759 7.55508 241.138 9.55615C240.512 11.5519 240.202 13.9542 240.202 16.7579V27.9778C240.202 30.7814 240.512 33.1838 241.138 35.1795C241.759 37.1805 242.786 38.8178 244.215 40.0912C245.644 41.3646 247.538 42.2849 249.903 42.8574C252.262 43.4245 255.21 43.7135 258.741 43.7135H280.785C284.263 43.7135 287.201 43.4245 289.587 42.8574C291.973 42.2849 293.883 41.3646 295.312 40.0912C296.74 38.8178 297.768 37.1805 298.388 35.1795C299.014 33.1838 299.325 30.7814 299.325 27.9778V16.7579C299.325 13.9542 299.014 11.5519 298.388 9.55615C297.768 7.55508 296.74 5.91784 295.312 4.64443ZM288.265 26.0302C288.265 27.6942 288.132 29.0693 287.875 30.1554C287.613 31.2469 287.158 32.119 286.51 32.7664C285.863 33.4192 284.991 33.8847 283.899 34.1682C282.813 34.4572 281.406 34.5963 279.694 34.5963H259.833C258.169 34.5963 256.794 34.4572 255.702 34.1682C254.611 33.8847 253.744 33.4192 253.091 32.7664C252.444 32.119 251.989 31.2469 251.732 30.1554C251.47 29.0693 251.342 27.6942 251.342 26.0302V18.6305C251.342 17.02 251.47 15.6664 251.732 14.5802C251.989 13.4887 252.444 12.6059 253.091 11.9317C253.744 11.2576 254.611 10.7868 255.702 10.5299C256.794 10.2678 258.169 10.1393 259.833 10.1393H279.694C281.406 10.1393 282.813 10.2678 283.899 10.5299C284.991 10.7868 285.863 11.2576 286.51 11.9317C287.158 12.6059 287.613 13.4887 287.875 14.5802C288.132 15.6664 288.265 17.02 288.265 18.6305V26.0302Z" fill="white"/>
<path d="M358.293 20.7332C356.42 18.9141 353.306 18.0045 348.945 18.0045H322.696C321.086 18.0045 319.967 17.7049 319.347 17.111C318.721 16.5117 318.41 15.6931 318.41 14.6551V13.4887C318.41 12.3437 318.721 11.477 319.347 10.8777C319.967 10.2838 321.086 9.98418 322.696 9.98418H357.822C358.758 9.98418 359.224 9.51334 359.224 8.58237V2.34908C359.224 1.41276 358.758 0.947266 357.822 0.947266H319.812C317.528 0.947266 315.607 1.19339 314.044 1.68563C312.487 2.18322 311.23 2.89483 310.267 3.83116C309.309 4.76214 308.619 5.89109 308.207 7.218C307.79 8.53956 307.581 10.0109 307.581 11.6161V15.0457C307.581 18.4754 308.517 21.081 310.385 22.8734C312.257 24.6658 315.371 25.5594 319.732 25.5594H345.906C347.517 25.5594 348.646 25.8483 349.293 26.4208C349.941 26.9933 350.267 27.7958 350.267 28.8338V30.9366C350.267 32.2849 349.941 33.248 349.293 33.8205C348.646 34.393 347.517 34.6765 345.906 34.6765H308.983C308.047 34.6765 307.581 35.142 307.581 36.0784V42.3116C307.581 43.2426 308.047 43.7135 308.983 43.7135H348.865C351.15 43.7135 353.071 43.4673 354.628 42.9697C356.19 42.4775 357.447 41.7659 358.41 40.8296C359.368 39.8932 360.058 38.7536 360.47 37.3999C360.888 36.0516 361.096 34.5214 361.096 32.8039V28.4433C361.096 25.1206 360.16 22.5524 358.293 20.7332Z" fill="white"/>
<path d="M18.1102 19.3372V14.7679C18.1102 13.4891 17.0669 12.4404 15.7828 12.4404H7.10967C5.82557 12.4404 4.78223 13.4891 4.78223 14.7679V19.3372C4.78223 20.6213 5.82557 21.6646 7.10967 21.6646H15.7828C17.0669 21.6646 18.1102 20.6213 18.1102 19.3372ZM17.0401 19.3372C17.0401 20.0327 16.473 20.5945 15.7828 20.5945H7.10967C6.41947 20.5945 5.85232 20.0327 5.85232 19.3372V14.7679C5.85232 14.0777 6.41947 13.5105 7.10967 13.5105H15.7828C16.473 13.5105 17.0401 14.0777 17.0401 14.7679V19.3372Z" fill="white"/>
</g>
<defs>
<clipPath id="clip0_10976_22024">
<rect width="360.193" height="60" fill="white" transform="translate(0.90332 0.925781)"/>
</clipPath>
</defs>
</svg>
