<svg width="60" height="60" viewBox="0 0 60 60" fill="none" xmlns="http://www.w3.org/2000/svg">
<g clip-path="url(#clip0_9621_17852)">
<path d="M8.18182 0C3.66314 0 0 3.66314 0 8.18182V51.8182C0 56.337 3.66314 60 8.18182 60H51.8182C56.337 60 60 56.337 60 51.8182V8.18182C60 3.66314 56.337 0 51.8182 0H8.18182Z" fill="#A2B5D2"/>
<path fill-rule="evenodd" clip-rule="evenodd" d="M16.3636 27.2724C19.3761 27.2724 21.8182 24.8304 21.8182 21.8178C21.8182 18.8054 19.3761 16.3633 16.3636 16.3633C13.3512 16.3633 10.9091 18.8054 10.9091 21.8178C10.9091 24.8304 13.3512 27.2724 16.3636 27.2724ZM16.2838 33.9414C15.096 33.1494 13.7003 32.7269 12.2727 32.7269C10.8451 32.7269 9.44948 33.1494 8.26165 33.9414L1.21445 38.6394C0.455727 39.1453 0 39.9967 0 40.9087V51.8178C0 56.3366 3.66314 59.9996 8.18182 59.9996H51.8179C56.3367 59.9996 60 56.3366 60 51.8178V40.9087C60 40.0363 59.5825 39.2162 58.8766 38.7032L44.9795 28.5962C43.7967 27.7357 42.3717 27.2724 40.9091 27.2724C39.4465 27.2724 38.0215 27.7357 36.8386 28.5959L24.0835 37.8725C23.8073 38.0732 23.4746 38.1815 23.1332 38.1815C22.8142 38.1815 22.5023 38.0871 22.2369 37.9101L16.2838 33.9414Z" fill="#DBE1F8"/>
</g>
<defs>
<clipPath id="clip0_9621_17852">
<rect width="60" height="60" fill="white"/>
</clipPath>
</defs>
</svg>
