<svg width="40" height="40" viewBox="0 0 40 40" fill="none" xmlns="http://www.w3.org/2000/svg">
<path fill-rule="evenodd" clip-rule="evenodd" d="M16.9921 5.71423C15.671 5.71423 14.4552 6.46614 13.8643 7.64783L13.404 8.57138H9.99995C7.64993 8.57138 5.71423 10.5071 5.71423 12.8571V27.1428C5.71423 29.4928 7.64993 31.4285 9.99995 31.4285H29.9999C32.35 31.4285 34.2857 29.4928 34.2857 27.1428V12.8571C34.2857 10.5071 32.35 8.57138 29.9999 8.57138H26.5959L26.1356 7.64783C25.5447 6.46614 24.3289 5.71423 23.0078 5.71423H16.9921ZM16.9921 8.57138H23.0078C23.2528 8.57138 23.4702 8.70666 23.5797 8.92573L24.4363 10.6389C24.555 10.8762 24.7374 11.0757 24.9631 11.2152C25.1888 11.3547 25.4489 11.4285 25.7142 11.4285H29.9999C30.8058 11.4285 31.4285 12.0512 31.4285 12.8571V27.1428C31.4285 27.9487 30.8058 28.5714 29.9999 28.5714H9.99995C9.19405 28.5714 8.57138 27.9487 8.57138 27.1428V12.8571C8.57138 12.0512 9.19405 11.4285 9.99995 11.4285H14.2857C14.551 11.4285 14.8111 11.3547 15.0368 11.2152C15.2625 11.0757 15.4449 10.8762 15.5636 10.6389L16.4201 8.92573C16.5297 8.70659 16.7471 8.57138 16.9921 8.57138Z" fill="#AD1000"/>
<path fill-rule="evenodd" clip-rule="evenodd" d="M1.42857 0C1.0497 3.78812e-05 0.686362 0.15056 0.418461 0.418461C0.15056 0.686362 3.78812e-05 1.0497 0 1.42857V7.14286C0 7.52174 0.150509 7.8851 0.418418 8.15301C0.686327 8.42092 1.04969 8.57143 1.42857 8.57143C1.80745 8.57143 2.17082 8.42092 2.43873 8.15301C2.70663 7.8851 2.85714 7.52174 2.85714 7.14286V2.85714H7.14286C7.52174 2.85714 7.8851 2.70663 8.15301 2.43873C8.42092 2.17082 8.57143 1.80745 8.57143 1.42857C8.57143 1.04969 8.42092 0.686327 8.15301 0.418418C7.8851 0.150509 7.52174 0 7.14286 0H1.42857Z" fill="#AD1000"/>
<path fill-rule="evenodd" clip-rule="evenodd" d="M1.42857 31.4286C1.04969 31.4286 0.686327 31.5791 0.418418 31.847C0.150509 32.1149 0 32.4783 0 32.8572V38.5714C3.78812e-05 38.9503 0.15056 39.3137 0.418461 39.5816C0.686362 39.8495 1.0497 40 1.42857 40H7.14286C7.52174 40 7.8851 39.8495 8.15301 39.5816C8.42092 39.3137 8.57143 38.9503 8.57143 38.5714C8.57143 38.1926 8.42092 37.8292 8.15301 37.5613C7.8851 37.2934 7.52174 37.1429 7.14286 37.1429H2.85714V32.8572C2.85714 32.4783 2.70663 32.1149 2.43873 31.847C2.17082 31.5791 1.80745 31.4286 1.42857 31.4286Z" fill="#AD1000"/>
<path fill-rule="evenodd" clip-rule="evenodd" d="M32.857 0C32.4782 0 32.1148 0.150509 31.8469 0.418418C31.579 0.686327 31.4285 1.04969 31.4285 1.42857C31.4285 1.80745 31.579 2.17082 31.8469 2.43873C32.1148 2.70663 32.4782 2.85714 32.857 2.85714H37.1428V7.14286C37.1428 7.52174 37.2933 7.8851 37.5612 8.15301C37.8291 8.42092 38.1924 8.57143 38.5713 8.57143C38.9502 8.57143 39.3136 8.42092 39.5815 8.15301C39.8494 7.8851 39.9999 7.52174 39.9999 7.14286V1.42857C39.9999 1.0497 39.8493 0.686362 39.5814 0.418461C39.3135 0.15056 38.9502 3.78812e-05 38.5713 0H32.857Z" fill="#AD1000"/>
<path fill-rule="evenodd" clip-rule="evenodd" d="M38.5713 31.4286C38.1924 31.4286 37.8291 31.5791 37.5612 31.847C37.2933 32.1149 37.1428 32.4783 37.1428 32.8572V37.1429H32.857C32.4782 37.1429 32.1148 37.2934 31.8469 37.5613C31.579 37.8292 31.4285 38.1926 31.4285 38.5714C31.4285 38.9503 31.579 39.3137 31.8469 39.5816C32.1148 39.8495 32.4782 40 32.857 40H38.5713C38.9502 40 39.3135 39.8495 39.5814 39.5816C39.8493 39.3137 39.9999 38.9503 39.9999 38.5714V32.8572C39.9999 32.4783 39.8494 32.1149 39.5815 31.847C39.3136 31.5791 38.9502 31.4286 38.5713 31.4286Z" fill="#AD1000"/>
<path fill-rule="evenodd" clip-rule="evenodd" d="M19.9998 14.2858C16.8608 14.2858 14.2855 16.8611 14.2855 20.0001C14.2855 23.139 16.8608 25.7143 19.9998 25.7143C23.1388 25.7143 25.7141 23.139 25.7141 20.0001C25.7141 16.8611 23.1388 14.2858 19.9998 14.2858ZM19.9998 17.1429C21.5947 17.1429 22.857 18.4052 22.857 20.0001C22.857 21.5949 21.5947 22.8572 19.9998 22.8572C18.4049 22.8572 17.1427 21.5949 17.1427 20.0001C17.1427 18.4052 18.4049 17.1429 19.9998 17.1429Z" fill="#AD1000"/>
<path d="M2 2L38 38" stroke="#ED3724" stroke-width="4" stroke-linecap="round"/>
</svg>
