<svg width="40" height="40" viewBox="0 0 40 40" fill="none" xmlns="http://www.w3.org/2000/svg">
<path fill-rule="evenodd" clip-rule="evenodd" d="M16.9921 5.71436C15.671 5.71436 14.4552 6.46626 13.8643 7.64795L13.404 8.5715H9.99995C7.64993 8.5715 5.71423 10.5072 5.71423 12.8572V27.1429C5.71423 29.4929 7.64993 31.4286 9.99995 31.4286H29.9999C32.35 31.4286 34.2857 29.4929 34.2857 27.1429V12.8572C34.2857 10.5072 32.35 8.5715 29.9999 8.5715H26.5959L26.1356 7.64795C25.5447 6.46626 24.3289 5.71436 23.0078 5.71436H16.9921ZM16.9921 8.5715H23.0078C23.2528 8.5715 23.4702 8.70678 23.5797 8.92585L24.4363 10.639C24.555 10.8763 24.7374 11.0759 24.9631 11.2153C25.1888 11.3548 25.4489 11.4287 25.7142 11.4286H29.9999C30.8058 11.4286 31.4285 12.0513 31.4285 12.8572V27.1429C31.4285 27.9488 30.8058 28.5715 29.9999 28.5715H9.99995C9.19405 28.5715 8.57138 27.9488 8.57138 27.1429V12.8572C8.57138 12.0513 9.19405 11.4286 9.99995 11.4286H14.2857C14.551 11.4287 14.8111 11.3548 15.0368 11.2153C15.2625 11.0759 15.4449 10.8763 15.5636 10.639L16.4201 8.92585C16.5297 8.70671 16.7471 8.5715 16.9921 8.5715Z" fill="#6777EF"/>
<path fill-rule="evenodd" clip-rule="evenodd" d="M1.42857 0C1.0497 3.78812e-05 0.686362 0.15056 0.418461 0.418461C0.15056 0.686362 3.78812e-05 1.0497 0 1.42857V7.14286C0 7.52174 0.150509 7.8851 0.418418 8.15301C0.686327 8.42092 1.04969 8.57143 1.42857 8.57143C1.80745 8.57143 2.17082 8.42092 2.43873 8.15301C2.70663 7.8851 2.85714 7.52174 2.85714 7.14286V2.85714H7.14286C7.52174 2.85714 7.8851 2.70663 8.15301 2.43873C8.42092 2.17082 8.57143 1.80745 8.57143 1.42857C8.57143 1.04969 8.42092 0.686327 8.15301 0.418418C7.8851 0.150509 7.52174 0 7.14286 0H1.42857Z" fill="#6777EF"/>
<path fill-rule="evenodd" clip-rule="evenodd" d="M1.42857 31.4285C1.04969 31.4285 0.686327 31.579 0.418418 31.8469C0.150509 32.1148 0 32.4782 0 32.857V38.5713C3.78812e-05 38.9502 0.15056 39.3135 0.418461 39.5814C0.686362 39.8493 1.0497 39.9999 1.42857 39.9999H7.14286C7.52174 39.9999 7.8851 39.8494 8.15301 39.5815C8.42092 39.3136 8.57143 38.9502 8.57143 38.5713C8.57143 38.1924 8.42092 37.8291 8.15301 37.5612C7.8851 37.2933 7.52174 37.1428 7.14286 37.1428H2.85714V32.857C2.85714 32.4782 2.70663 32.1148 2.43873 31.8469C2.17082 31.579 1.80745 31.4285 1.42857 31.4285Z" fill="#6777EF"/>
<path fill-rule="evenodd" clip-rule="evenodd" d="M32.857 0C32.4782 0 32.1148 0.150509 31.8469 0.418418C31.579 0.686327 31.4285 1.04969 31.4285 1.42857C31.4285 1.80745 31.579 2.17082 31.8469 2.43873C32.1148 2.70663 32.4782 2.85714 32.857 2.85714H37.1428V7.14286C37.1428 7.52174 37.2933 7.8851 37.5612 8.15301C37.8291 8.42092 38.1924 8.57143 38.5713 8.57143C38.9502 8.57143 39.3136 8.42092 39.5815 8.15301C39.8494 7.8851 39.9999 7.52174 39.9999 7.14286V1.42857C39.9999 1.0497 39.8493 0.686362 39.5814 0.418461C39.3135 0.15056 38.9502 3.78812e-05 38.5713 0H32.857Z" fill="#6777EF"/>
<path fill-rule="evenodd" clip-rule="evenodd" d="M38.5713 31.4285C38.1924 31.4285 37.8291 31.579 37.5612 31.8469C37.2933 32.1148 37.1428 32.4782 37.1428 32.857V37.1428H32.857C32.4782 37.1428 32.1148 37.2933 31.8469 37.5612C31.579 37.8291 31.4285 38.1924 31.4285 38.5713C31.4285 38.9502 31.579 39.3136 31.8469 39.5815C32.1148 39.8494 32.4782 39.9999 32.857 39.9999H38.5713C38.9502 39.9999 39.3135 39.8493 39.5814 39.5814C39.8493 39.3135 39.9999 38.9502 39.9999 38.5713V32.857C39.9999 32.4782 39.8494 32.1148 39.5815 31.8469C39.3136 31.579 38.9502 31.4285 38.5713 31.4285Z" fill="#6777EF"/>
<path fill-rule="evenodd" clip-rule="evenodd" d="M19.9998 14.2856C16.8608 14.2856 14.2855 16.8609 14.2855 19.9999C14.2855 23.1389 16.8608 25.7142 19.9998 25.7142C23.1388 25.7142 25.7141 23.1389 25.7141 19.9999C25.7141 16.8609 23.1388 14.2856 19.9998 14.2856ZM19.9998 17.1428C21.5947 17.1428 22.857 18.4051 22.857 19.9999C22.857 21.5948 21.5947 22.8571 19.9998 22.8571C18.4049 22.8571 17.1427 21.5948 17.1427 19.9999C17.1427 18.4051 18.4049 17.1428 19.9998 17.1428Z" fill="#6777EF"/>
</svg>
