<svg width="17" height="16" viewBox="0 0 17 16" fill="none" xmlns="http://www.w3.org/2000/svg">
<path d="M14.3334 3.33337H2.33341C2.1566 3.33337 1.98703 3.40361 1.86201 3.52864C1.73699 3.65366 1.66675 3.82323 1.66675 4.00004C1.66675 4.17685 1.73699 4.34642 1.86201 4.47145C1.98703 4.59647 2.1566 4.66671 2.33341 4.66671H3.66675V12.6667C3.66691 13.1971 3.87767 13.7057 4.25271 14.0807C4.62775 14.4558 5.13636 14.6665 5.66675 14.6667H11.0001C11.5305 14.6666 12.0391 14.4558 12.4141 14.0808C12.7892 13.7057 12.9999 13.1971 13.0001 12.6667V4.66671H14.3334C14.5102 4.66671 14.6798 4.59647 14.8048 4.47145C14.9298 4.34642 15.0001 4.17685 15.0001 4.00004C15.0001 3.82323 14.9298 3.65366 14.8048 3.52864C14.6798 3.40361 14.5102 3.33337 14.3334 3.33337ZM7.66675 10.6667C7.66675 10.8435 7.59651 11.0131 7.47149 11.1381C7.34646 11.2631 7.17689 11.3334 7.00008 11.3334C6.82327 11.3334 6.6537 11.2631 6.52868 11.1381C6.40365 11.0131 6.33342 10.8435 6.33342 10.6667V7.33337C6.33342 7.15656 6.40365 6.98699 6.52868 6.86197C6.6537 6.73695 6.82327 6.66671 7.00008 6.66671C7.17689 6.66671 7.34646 6.73695 7.47149 6.86197C7.59651 6.98699 7.66675 7.15656 7.66675 7.33337V10.6667ZM10.3334 10.6667C10.3334 10.8435 10.2632 11.0131 10.1382 11.1381C10.0131 11.2631 9.84356 11.3334 9.66675 11.3334C9.48994 11.3334 9.32037 11.2631 9.19534 11.1381C9.07032 11.0131 9.00008 10.8435 9.00008 10.6667V7.33337C9.00008 7.15656 9.07032 6.98699 9.19534 6.86197C9.32037 6.73695 9.48994 6.66671 9.66675 6.66671C9.84356 6.66671 10.0131 6.73695 10.1382 6.86197C10.2632 6.98699 10.3334 7.15656 10.3334 7.33337V10.6667Z" fill="black"/>
<path d="M7.00016 2.66671H9.66683C9.84364 2.66671 10.0132 2.59647 10.1382 2.47145C10.2633 2.34642 10.3335 2.17685 10.3335 2.00004C10.3335 1.82323 10.2633 1.65366 10.1382 1.52864C10.0132 1.40361 9.84364 1.33337 9.66683 1.33337H7.00016C6.82335 1.33337 6.65378 1.40361 6.52876 1.52864C6.40373 1.65366 6.3335 1.82323 6.3335 2.00004C6.3335 2.17685 6.40373 2.34642 6.52876 2.47145C6.65378 2.59647 6.82335 2.66671 7.00016 2.66671Z" fill="black"/>
</svg>
