<svg width="33" height="33" viewBox="0 0 33 33" fill="none" xmlns="http://www.w3.org/2000/svg">
<g clip-path="url(#clip0_4726_831)">
<path d="M29.1666 27.1666H10.5C10.3146 27.1666 10.1386 27.0893 10.0133 26.9546L0.679954 16.9546C0.439954 16.6986 0.439954 16.3013 0.679954 16.0439L10.0133 6.04392C10.1386 5.91059 10.3146 5.83325 10.5 5.83325H29.1666C31.0053 5.83325 32.5 7.32925 32.5 9.16659V23.8333C32.5 25.6706 31.0053 27.1666 29.1666 27.1666ZM10.7893 25.8333H29.1666C30.2693 25.8333 31.1666 24.9359 31.1666 23.8333V9.16659C31.1666 8.06392 30.2693 7.16659 29.1666 7.16659H10.7893L2.07862 16.4999L10.7893 25.8333Z" fill="black"/>
<path d="M25.8333 21.8334C25.6626 21.8334 25.492 21.7681 25.3613 21.6387L16.028 12.3054C15.768 12.0454 15.768 11.6227 16.028 11.3627C16.288 11.1027 16.7106 11.1027 16.9706 11.3627L26.304 20.6961C26.564 20.9561 26.564 21.3787 26.304 21.6387C26.1746 21.7681 26.004 21.8334 25.8333 21.8334Z" fill="black"/>
<path d="M16.5 21.8334C16.3293 21.8334 16.1586 21.7681 16.028 21.6387C15.768 21.3787 15.768 20.9561 16.028 20.6961L25.3613 11.3627C25.6213 11.1027 26.044 11.1027 26.304 11.3627C26.564 11.6227 26.564 12.0454 26.304 12.3054L16.9706 21.6387C16.8413 21.7681 16.6706 21.8334 16.5 21.8334Z" fill="black"/>
</g>
<defs>
<clipPath id="clip0_4726_831">
<rect width="32" height="32" fill="white" transform="translate(0.5 0.5)"/>
</clipPath>
</defs>
</svg>
