<svg width="20" height="20" viewBox="0 0 20 20" fill="none" xmlns="http://www.w3.org/2000/svg">
<path fill-rule="evenodd" clip-rule="evenodd" d="M11.0748 2.10418L16.7832 6.11251C17.6731 6.73792 18.2018 7.75817 18.1998 8.84584V14.7875C18.1976 15.7312 17.8206 16.6354 17.1517 17.3012C16.4829 17.9669 15.5769 18.3397 14.6332 18.3375H5.23318C4.28945 18.3397 3.38349 17.9669 2.71461 17.3012C2.04573 16.6354 1.66872 15.7312 1.66651 14.7875V8.84584C1.6645 7.75817 2.19329 6.73792 3.08318 6.11251L8.79151 2.10418C9.44085 1.52084 10.4255 1.52084 11.0748 2.10418ZM11.1498 13.3375L15.7082 10.1625L15.6748 10.2042C15.8579 10.0762 15.9588 9.86018 15.9395 9.6376C15.9202 9.41502 15.7836 9.21966 15.5812 9.1251C15.3788 9.03054 15.1413 9.05116 14.9582 9.17918L10.3415 12.4042C10.2048 12.5409 10.0172 12.6142 9.82404 12.6062C9.6309 12.5983 9.44987 12.5099 9.32485 12.3625L4.84151 9.17918C4.56788 9.00044 4.20231 9.06624 4.00818 9.32918C3.83374 9.60367 3.89897 9.96607 4.15818 10.1625L8.57484 13.2958C8.93919 13.6295 9.41415 13.8165 9.90818 13.8208C10.3685 13.8236 10.8126 13.6508 11.1498 13.3375Z" fill="#BABABA"/>
</svg>
