<svg width="24" height="24" viewBox="0 0 24 24" fill="none" xmlns="http://www.w3.org/2000/svg">
<path d="M16.854 19.557C16.6236 19.8133 16.3348 20.0101 16.012 20.1308C15.6892 20.2514 15.342 20.2923 15 20.25H6.00004C4.42304 20.25 3.75004 19.577 3.75004 18V6.00004C3.75004 4.42304 4.42304 3.75004 6.00004 3.75004H11.25V6.00004C11.1913 6.5067 11.2479 7.02008 11.4156 7.50177C11.5833 7.98347 11.8577 8.42101 12.2184 8.78168C12.5791 9.14234 13.0166 9.41678 13.4983 9.58447C13.98 9.75216 14.4934 9.80876 15 9.75004H17.25V12C17.25 12.1989 17.3291 12.3897 17.4697 12.5304C17.6104 12.671 17.8011 12.75 18 12.75C18.199 12.75 18.3897 12.671 18.5304 12.5304C18.671 12.3897 18.75 12.1989 18.75 12V9.00004C18.7501 8.90155 18.7307 8.80403 18.693 8.71307C18.6552 8.62211 18.5998 8.53952 18.53 8.47004L12.53 2.47004C12.4606 2.40024 12.378 2.34487 12.287 2.30711C12.196 2.26936 12.0985 2.24996 12 2.25004H6.00004C5.49338 2.19131 4.98 2.24791 4.4983 2.4156C4.0166 2.5833 3.57906 2.85774 3.2184 3.2184C2.85774 3.57906 2.5833 4.0166 2.4156 4.4983C2.24791 4.98 2.19131 5.49338 2.25004 6.00004V18C2.19131 18.5067 2.24791 19.0201 2.4156 19.5018C2.5833 19.9835 2.85774 20.421 3.2184 20.7817C3.57906 21.1423 4.0166 21.4168 4.4983 21.5845C4.98 21.7522 5.49338 21.8088 6.00004 21.75H15C15.5788 21.7992 16.1608 21.7057 16.6951 21.4779C17.2295 21.25 17.6998 20.8947 18.065 20.443C18.1825 20.2824 18.2314 20.0818 18.2009 19.8851C18.1705 19.6885 18.0631 19.512 17.9025 19.3945C17.742 19.277 17.5413 19.2282 17.3446 19.2586C17.148 19.2891 16.9715 19.3964 16.854 19.557ZM12.75 6.00004V4.81104L16.189 8.25004H15C13.423 8.25004 12.75 7.57704 12.75 6.00004ZM22.53 16.53L20.53 18.53C20.3879 18.6625 20.1998 18.7346 20.0055 18.7312C19.8112 18.7278 19.6258 18.6491 19.4884 18.5117C19.351 18.3742 19.2723 18.1889 19.2689 17.9946C19.2654 17.8003 19.3376 17.6122 19.47 17.47L20.189 16.75H13C12.8011 16.75 12.6104 16.671 12.4697 16.5304C12.3291 16.3897 12.25 16.1989 12.25 16C12.25 15.8011 12.3291 15.6104 12.4697 15.4697C12.6104 15.3291 12.8011 15.25 13 15.25H20.189L19.47 14.53C19.3376 14.3879 19.2654 14.1998 19.2689 14.0055C19.2723 13.8112 19.351 13.6258 19.4884 13.4884C19.6258 13.351 19.8112 13.2723 20.0055 13.2689C20.1998 13.2654 20.3879 13.3376 20.53 13.47L22.53 15.47C22.5991 15.5403 22.6541 15.6231 22.692 15.714C22.7487 15.851 22.7635 16.0017 22.7347 16.1471C22.7058 16.2924 22.6346 16.425 22.53 16.53Z" fill="#0E72ED"/>
</svg>
