<svg width="24" height="24" viewBox="0 0 24 24" fill="none" xmlns="http://www.w3.org/2000/svg">
<g clip-path="url(#clip0_9834_16724)">
<path d="M17.3001 6.30029C16.9101 5.91029 16.2801 5.91029 15.8901 6.30029L10.2501 11.9403L11.6601 13.3503L17.3001 7.70029C17.6801 7.32029 17.6801 6.68029 17.3001 6.30029ZM21.5401 6.29029L11.6601 16.1703L8.18014 12.7003C7.79014 12.3103 7.16014 12.3103 6.77014 12.7003C6.38014 13.0903 6.38014 13.7203 6.77014 14.1103L10.9501 18.2903C11.3401 18.6803 11.9701 18.6803 12.3601 18.2903L22.9501 7.71029C23.3401 7.32029 23.3401 6.69029 22.9501 6.30029H22.9401C22.5601 5.90029 21.9301 5.90029 21.5401 6.29029ZM1.12014 14.1203L5.30014 18.3003C5.69014 18.6903 6.32014 18.6903 6.71014 18.3003L7.41014 17.6003L2.53014 12.7003C2.14014 12.3103 1.51014 12.3103 1.12014 12.7003C0.730137 13.0903 0.730137 13.7303 1.12014 14.1203Z" fill="#242133"/>
</g>
<defs>
<clipPath id="clip0_9834_16724">
<rect width="24" height="24" fill="white"/>
</clipPath>
</defs>
</svg>
