<svg width="81" height="80" viewBox="0 0 81 80" fill="none" xmlns="http://www.w3.org/2000/svg">
<circle cx="40.5" cy="40" r="39" stroke="#5C5C5C" stroke-width="2"/>
<circle cx="40.4997" cy="40.0002" r="28.2927" fill="#F0F0F0"/>
<path d="M32.6112 46.2196H36.6486C36.7172 48.0815 38.246 49.8063 40.4999 49.8063C42.744 49.8063 44.2826 48.0913 44.361 46.2196H48.3886C49.4078 46.2196 50.035 45.661 50.035 44.8183C50.035 43.7697 49.0844 42.8779 48.1926 42.0254C47.5067 41.3492 47.3499 40.0164 47.2127 38.6837C47.2029 38.1349 47.1637 37.6155 47.1049 37.1157C46.5169 37.3607 45.7819 37.4587 45.1547 37.3705C45.2037 37.8213 45.2429 38.3015 45.2527 38.8601C45.3507 40.722 45.6741 42.1528 46.3405 42.9269C46.8207 43.4757 47.3695 43.9951 47.6243 44.2793V44.3969H33.356V44.2793C33.6107 43.9951 34.1791 43.4757 34.6593 42.9269C35.3355 42.1528 35.6491 40.722 35.7471 38.8601C35.8647 34.9304 37.07 33.5977 38.6478 33.1861C38.8928 33.1175 39.0202 32.9999 39.0398 32.7353C39.0986 31.7455 39.6473 31.0792 40.4999 31.0792C40.6665 31.0792 40.8135 31.0988 40.9507 31.1477C41.1271 30.55 41.4407 30.011 41.8523 29.5602C41.4505 29.3544 40.9997 29.2368 40.4999 29.2368C39.0398 29.2368 37.952 30.2266 37.5796 31.5299C35.0219 32.4511 33.9439 34.9206 33.7969 38.6151C33.6695 39.9968 33.503 41.3492 32.8072 42.0254C31.9154 42.8779 30.9648 43.7697 30.9648 44.8183C30.9648 45.661 31.592 46.2196 32.6112 46.2196ZM45.3997 36.0966C47.2421 36.0966 48.7806 34.5678 48.7806 32.7157C48.7806 30.8636 47.2421 29.3348 45.3997 29.3348C43.5476 29.3348 42.0189 30.8636 42.0189 32.7157C42.0189 34.5678 43.5476 36.0966 45.3997 36.0966ZM40.4999 48.2285C39.3925 48.2285 38.5988 47.4348 38.5302 46.2196H42.4794C42.4206 47.425 41.6171 48.2285 40.4999 48.2285Z" fill="#7C7B7B"/>
</svg>
