<svg xmlns="http://www.w3.org/2000/svg" width="16" height="11" viewBox="0 0 16 11" fill="none">
    <path d="M15.7543 4.81908C13.8609 2.53105 10.9948 0.328613 7.99979 0.328613C5.00419 0.328613 2.13739 2.53259 0.245232 4.81908C-0.0820696 5.21443 -0.0820696 5.78836 0.245232 6.18371C0.720943 6.75857 1.71824 7.86825 3.05023 8.83784C6.40481 11.2799 9.58737 11.2853 12.9493 8.83784C14.2813 7.86825 15.2786 6.75857 15.7543 6.18371C16.0807 5.78913 16.0824 5.21572 15.7543 4.81908ZM7.99979 2.05287C9.9014 2.05287 11.4483 3.59978 11.4483 5.5014C11.4483 7.40301 9.9014 8.94992 7.99979 8.94992C6.09817 8.94992 4.55127 7.40301 4.55127 5.5014C4.55127 3.59978 6.09817 2.05287 7.99979 2.05287Z" fill="white"></path>
</svg>