<svg width="16" height="16" viewBox="0 0 16 16" fill="none" xmlns="http://www.w3.org/2000/svg">
                                                        <path d="M6.40015 2.6V2.8H9.60015V2.6C9.60015 2.17565 9.43158 1.76869 9.13152 1.46863C8.83146 1.16857 8.42449 1 8.00015 1C7.5758 1 7.16883 1.16857 6.86878 1.46863C6.56872 1.76869 6.40015 2.17565 6.40015 2.6ZM5.40015 2.8V2.6C5.40015 1.91044 5.67407 1.24912 6.16167 0.761522C6.64926 0.273928 7.31058 0 8.00015 0C8.68971 0 9.35103 0.273928 9.83862 0.761522C10.3262 1.24912 10.6001 1.91044 10.6001 2.6V2.8H15.1001C15.2328 2.8 15.3599 2.85268 15.4537 2.94645C15.5475 3.04021 15.6001 3.16739 15.6001 3.3C15.6001 3.43261 15.5475 3.55979 15.4537 3.65355C15.3599 3.74732 15.2328 3.8 15.1001 3.8H13.9333L13.1333 13.3424C13.0726 14.067 12.7418 14.7424 12.2065 15.2346C11.6712 15.7269 10.9705 16 10.2433 16H5.75695C5.02982 15.9999 4.32926 15.7267 3.79407 15.2345C3.25888 14.7423 2.92812 14.067 2.86735 13.3424L2.06735 3.8H0.900146C0.767538 3.8 0.640361 3.74732 0.546593 3.65355C0.452825 3.55979 0.400146 3.43261 0.400146 3.3C0.400146 3.16739 0.452825 3.04021 0.546593 2.94645C0.640361 2.85268 0.767538 2.8 0.900146 2.8H5.40015ZM7.00015 6.5C7.00015 6.43434 6.98721 6.36932 6.96209 6.30866C6.93696 6.248 6.90013 6.19288 6.8537 6.14645C6.80727 6.10002 6.75215 6.06319 6.69149 6.03806C6.63083 6.01293 6.56581 6 6.50015 6C6.43449 6 6.36947 6.01293 6.3088 6.03806C6.24814 6.06319 6.19302 6.10002 6.14659 6.14645C6.10016 6.19288 6.06333 6.248 6.03821 6.30866C6.01308 6.36932 6.00015 6.43434 6.00015 6.5V12.3C6.00015 12.3657 6.01308 12.4307 6.03821 12.4913C6.06333 12.552 6.10016 12.6071 6.14659 12.6536C6.19302 12.7 6.24814 12.7368 6.3088 12.7619C6.36947 12.7871 6.43449 12.8 6.50015 12.8C6.56581 12.8 6.63083 12.7871 6.69149 12.7619C6.75215 12.7368 6.80727 12.7 6.8537 12.6536C6.90013 12.6071 6.93696 12.552 6.96209 12.4913C6.98721 12.4307 7.00015 12.3657 7.00015 12.3V6.5ZM9.50015 6C9.22415 6 9.00015 6.224 9.00015 6.5V12.3C9.00015 12.4326 9.05282 12.5598 9.14659 12.6536C9.24036 12.7473 9.36754 12.8 9.50015 12.8C9.63276 12.8 9.75993 12.7473 9.8537 12.6536C9.94747 12.5598 10.0001 12.4326 10.0001 12.3V6.5C10.0001 6.224 9.77615 6 9.50015 6Z" fill="#6D727C"></path>
                                                    </svg>