<svg width="20" height="20" viewBox="0 0 20 20" fill="none" xmlns="http://www.w3.org/2000/svg">
<path d="M9.98799 4.16323C10.1535 4.16226 10.3156 4.21061 10.4535 4.30212C10.5914 4.39362 10.699 4.52412 10.7625 4.67699C10.8259 4.82986 10.8424 4.99817 10.8099 5.16046C10.7773 5.32275 10.6972 5.47167 10.5797 5.58822L6.16299 9.99656L10.5797 14.4049C10.7162 14.5643 10.7875 14.7694 10.7794 14.9791C10.7713 15.1888 10.6844 15.3878 10.536 15.5362C10.3875 15.6846 10.1886 15.7716 9.97887 15.7797C9.76914 15.7878 9.56408 15.7164 9.40466 15.5799L4.40466 10.5799C4.24945 10.4238 4.16233 10.2125 4.16233 9.99239C4.16233 9.77224 4.24945 9.56103 4.40466 9.40489L9.40466 4.40489C9.55988 4.25094 9.76938 4.16415 9.98799 4.16323Z" fill="black"/>
<path d="M14.988 4.16342C15.1535 4.16246 15.3156 4.21081 15.4535 4.30231C15.5914 4.39381 15.699 4.52431 15.7625 4.67718C15.8259 4.83005 15.8424 4.99836 15.8099 5.16065C15.7773 5.32294 15.6972 5.47186 15.5797 5.58842L11.163 9.99675L15.5797 14.4051C15.7366 14.562 15.8247 14.7748 15.8247 14.9968C15.8247 15.2187 15.7366 15.4315 15.5797 15.5884C15.4227 15.7453 15.2099 15.8335 14.988 15.8335C14.7661 15.8335 14.5532 15.7453 14.3963 15.5884L9.39632 10.5884C9.24112 10.4323 9.154 10.2211 9.154 10.0009C9.154 9.78076 9.24112 9.56955 9.39632 9.41342L14.3963 4.41342C14.4735 4.33468 14.5655 4.27204 14.6671 4.22912C14.7687 4.18621 14.8777 4.16388 14.988 4.16342Z" fill="black"/>
</svg>
