<svg width="16" height="16" viewBox="0 0 16 16" fill="none" xmlns="http://www.w3.org/2000/svg">
<g clip-path="url(#clip0_11368_2923)">
<path d="M4.94922 14C5.20766 14.5943 5.63404 15.1001 6.17599 15.4554C6.71794 15.8107 7.35186 16 7.99989 16C8.64791 16 9.28183 15.8107 9.82378 15.4554C10.3657 15.1001 10.7921 14.5943 11.0506 14H4.94922Z" fill="#1A8BF3"/>
<path d="M14.9279 8.36547L13.7705 4.55013C13.3999 3.2157 12.5941 2.04331 11.4811 1.21913C10.3681 0.394951 9.01166 -0.03379 7.62715 0.000983625C6.24264 0.0357572 4.90942 0.532052 3.83919 1.41107C2.76895 2.29009 2.02303 3.50144 1.71987 4.8528L0.821205 8.54413C0.701761 9.03463 0.69529 9.54586 0.802279 10.0392C0.909269 10.5326 1.12692 10.9952 1.43882 11.3922C1.75072 11.7892 2.1487 12.1101 2.60275 12.3308C3.05679 12.5515 3.55504 12.6661 4.05987 12.6661H11.7379C12.2584 12.6662 12.7716 12.5443 13.2365 12.3103C13.7015 12.0763 14.1051 11.7367 14.4152 11.3186C14.7253 10.9006 14.9332 10.4157 15.0222 9.90292C15.1112 9.3901 15.0789 8.86356 14.9279 8.36547Z" fill="#1A8BF3"/>
</g>
<defs>
<clipPath id="clip0_11368_2923">
<rect width="16" height="16" fill="white"/>
</clipPath>
</defs>
</svg>
