<svg width="24" height="24" viewBox="0 0 173 139" fill="none" xmlns="http://www.w3.org/2000/svg">
<path d="M170.438 118.108L155.304 95.408V17.756C155.304 8.24794 147.539 0.5 138.048 0.5H34.512C25.0126 0.5 17.256 8.24794 17.256 17.756V95.408L2.12249 118.108C0 121.292 0 123.13 0 125.606V129.92C0 134.234 4.314 138.548 8.61937 138.548H163.941C168.246 138.548 172.56 134.234 172.56 129.92V125.606C172.56 123.13 172.56 121.292 170.438 118.108ZM60.396 121.292L65.5728 112.664H106.987L112.164 121.292H60.396ZM138.048 86.78H34.512V17.756H138.048V86.78Z" fill="white"/>
</svg>
