<svg width="52" height="52" viewBox="0 0 52 52" fill="none" xmlns="http://www.w3.org/2000/svg">
<path d="M34.6668 34.6667L26.0002 26L17.3335 34.6667" stroke="#0E72ED" stroke-width="3" stroke-linecap="round" stroke-linejoin="round"/>
<path d="M26 26V45.5" stroke="#0E72ED" stroke-width="3" stroke-linecap="round" stroke-linejoin="round"/>
<path d="M44.1785 39.8446C46.2917 38.6925 47.9611 36.8695 48.9232 34.6632C49.8853 32.457 50.0853 29.9932 49.4916 27.6607C48.8979 25.3282 47.5444 23.2598 45.6446 21.782C43.7448 20.3042 41.407 19.5011 39.0002 19.4996H36.2702C35.6143 16.9629 34.392 14.6079 32.695 12.6117C30.9981 10.6155 28.8707 9.0299 26.4727 7.97421C24.0748 6.91851 21.4687 6.42017 18.8504 6.51664C16.2321 6.6131 13.6698 7.30188 11.356 8.53117C9.04228 9.76046 7.0373 11.4983 5.49184 13.614C3.94638 15.7297 2.90065 18.1682 2.43328 20.7462C1.96591 23.3243 2.08905 25.9747 2.79345 28.4983C3.49785 31.0219 4.76518 33.3529 6.50016 35.3162" stroke="#0E72ED" stroke-width="3" stroke-linecap="round" stroke-linejoin="round"/>
<path d="M34.6668 34.6667L26.0002 26L17.3335 34.6667" stroke="#0E72ED" stroke-width="3" stroke-linecap="round" stroke-linejoin="round"/>
</svg>
