<svg xmlns="http://www.w3.org/2000/svg" width="19" height="15" viewBox="0 0 19 15" fill="none">
                                                    <path d="M17.4696 14.9956H6.98292C6.53758 14.9956 6.17615 14.6343 6.17615 14.1889C6.17615 13.7436 6.53758 13.3823 6.98292 13.3823H17.4696C17.9149 13.3823 18.2762 13.7436 18.2762 14.1889C18.2762 14.6343 17.9149 14.9956 17.4696 14.9956Z" fill="#6D727C"></path>
                                                    <path d="M14.575 1.4402L13.5497 0.41199C13.0017 -0.137729 12.0467 -0.136931 11.4993 0.41199L9.99988 1.91563L13.0756 5L14.575 3.49636C14.8491 3.22223 14.9999 2.8573 14.9999 2.46828C14.9999 2.08005 14.8491 1.715 14.575 1.4402Z" fill="#6D727C"></path>
                                                    <path d="M8.77492 3L0.939793 10.8349C0.889679 10.8843 0.854739 10.9473 0.83873 11.0165L0.0100453 14.5324C-0.0203013 14.6602 0.0183975 14.7955 0.111247 14.8882C0.182659 14.9605 0.279963 15 0.379494 15C0.408449 15 0.438099 14.9969 0.466915 14.9901L3.98308 14.1615C4.05157 14.1456 4.11463 14.1105 4.16475 14.0604L11.9999 6.22568L8.77492 3Z" fill="#6D727C"></path>
</svg>