<svg width="28" height="29" viewBox="0 0 28 29" fill="none" xmlns="http://www.w3.org/2000/svg">
<path d="M14 0.5C6.28017 0.5 0 6.78017 0 14.5C0 22.2198 6.28017 28.5 14 28.5C21.7198 28.5 28 22.2198 28 14.5C28 6.78017 21.7198 0.5 14 0.5ZM14 22.6667C13.034 22.6667 12.25 21.8827 12.25 20.9167C12.25 19.9507 13.034 19.1667 14 19.1667C14.966 19.1667 15.75 19.9507 15.75 20.9167C15.75 21.8827 14.966 22.6667 14 22.6667ZM14 16.25C13.034 16.25 12.25 15.466 12.25 14.5C12.25 13.534 13.034 12.75 14 12.75C14.966 12.75 15.75 13.534 15.75 14.5C15.75 15.466 14.966 16.25 14 16.25ZM14 9.83333C13.034 9.83333 12.25 9.04933 12.25 8.08333C12.25 7.11733 13.034 6.33333 14 6.33333C14.966 6.33333 15.75 7.11733 15.75 8.08333C15.75 9.04933 14.966 9.83333 14 9.83333Z" fill="#6D727C"/>
</svg>
