<svg width="20" height="21" viewBox="0 0 20 21" fill="none" xmlns="http://www.w3.org/2000/svg">
<g clip-path="url(#clip0_5654_12109)">
<path d="M12.6667 10.6667C12.6667 11.2187 12.2187 11.6667 11.6667 11.6667C11.1147 11.6667 10.6667 11.2187 10.6667 10.6667C10.6667 10.1147 11.1147 9.66667 11.6667 9.66667C12.2187 9.66667 12.6667 10.1147 12.6667 10.6667ZM14.6667 10.6667C14.6667 11.2187 15.1147 11.6667 15.6667 11.6667C16.2187 11.6667 16.6667 11.2187 16.6667 10.6667C16.6667 10.1147 16.2187 9.66667 15.6667 9.66667C15.1147 9.66667 14.6667 10.1147 14.6667 10.6667ZM8.66667 3.66667C8.66667 3.29867 8.96533 3 9.33333 3H9.544C10.4053 3 11.1533 3.544 11.4307 4.33333H16.6667C17.096 4.33333 17.4873 4.53133 17.7413 4.87733C17.9953 5.22333 18.0667 5.65667 17.9387 6.066L17.4573 7.59867C17.1953 8.43667 16.4287 9 15.5493 9H12.5967C11.62 9 10.7913 8.302 10.626 7.34L10.2013 4.886C10.146 4.566 9.86933 4.33267 9.544 4.33267H9.33333C8.96533 4.33267 8.66667 4.03467 8.66667 3.66667ZM11.6893 5.66667L11.9393 7.11333C11.9947 7.434 12.2707 7.66667 12.596 7.66667H15.5487C15.8413 7.66667 16.0973 7.47933 16.1847 7.2L16.666 5.66667H11.6893ZM17.3333 12.3333C16.9647 12.3333 16.6667 12.632 16.6667 13C16.6667 14.1027 15.7693 15 14.6667 15H5.33333C4.23067 15 3.33333 14.1027 3.33333 13V7.66667C3.33333 6.564 4.23067 5.66667 5.33333 5.66667H7.33333C7.70133 5.66667 8 5.368 8 5C8 4.632 7.70133 4.33333 7.33333 4.33333H5.33333C3.49533 4.33333 2 5.82867 2 7.66667V13C2 14.838 3.49533 16.3333 5.33333 16.3333H9.33333V17.6667H6.66667C6.29867 17.6667 6 17.9653 6 18.3333C6 18.7013 6.29867 19 6.66667 19H13.3333C13.702 19 14 18.7013 14 18.3333C14 17.9653 13.702 17.6667 13.3333 17.6667H10.6667V16.3333H14.6667C16.5047 16.3333 18 14.838 18 13C18 12.632 17.702 12.3333 17.3333 12.3333Z" fill="white"/>
</g>
<defs>
<clipPath id="clip0_5654_12109">
<rect width="16" height="16" fill="white" transform="translate(2 3)"/>
</clipPath>
</defs>
</svg>
