<svg width="24" height="24" viewBox="0 0 24 24" fill="none" xmlns="http://www.w3.org/2000/svg">
<path d="M16.854 19.557C16.6236 19.8133 16.3348 20.0101 16.012 20.1308C15.6892 20.2514 15.342 20.2923 15 20.25H6.00004C4.42304 20.25 3.75004 19.577 3.75004 18V6.00004C3.75004 4.42304 4.42304 3.75004 6.00004 3.75004H11.25V6.00004C11.1913 6.5067 11.2479 7.02008 11.4156 7.50177C11.5833 7.98347 11.8577 8.42101 12.2184 8.78168C12.5791 9.14234 13.0166 9.41678 13.4983 9.58447C13.98 9.75216 14.4934 9.80876 15 9.75004H17.25V12C17.25 12.1989 17.3291 12.3897 17.4697 12.5304C17.6104 12.671 17.8011 12.75 18 12.75C18.199 12.75 18.3897 12.671 18.5304 12.5304C18.671 12.3897 18.75 12.1989 18.75 12V9.00004C18.7501 8.90155 18.7307 8.80403 18.693 8.71307C18.6552 8.62211 18.5998 8.53952 18.53 8.47004L12.53 2.47004C12.4606 2.40024 12.378 2.34487 12.287 2.30711C12.196 2.26936 12.0985 2.24996 12 2.25004H6.00004C5.49338 2.19131 4.98 2.24791 4.4983 2.4156C4.0166 2.5833 3.57906 2.85774 3.2184 3.2184C2.85774 3.57906 2.5833 4.0166 2.4156 4.4983C2.24791 4.98 2.19131 5.49338 2.25004 6.00004V18C2.19131 18.5067 2.24791 19.0201 2.4156 19.5018C2.5833 19.9835 2.85774 20.421 3.2184 20.7817C3.57906 21.1423 4.0166 21.4168 4.4983 21.5845C4.98 21.7522 5.49338 21.8088 6.00004 21.75H15C15.5788 21.7992 16.1608 21.7057 16.6951 21.4779C17.2295 21.25 17.6998 20.8947 18.065 20.443C18.1825 20.2824 18.2314 20.0818 18.2009 19.8851C18.1705 19.6885 18.0631 19.512 17.9025 19.3945C17.742 19.277 17.5413 19.2282 17.3446 19.2586C17.148 19.2891 16.9715 19.3964 16.854 19.557ZM12.75 6.00004V4.81104L16.189 8.25004H15C13.423 8.25004 12.75 7.57704 12.75 6.00004ZM22.75 16C22.75 16.1989 22.671 16.3897 22.5304 16.5304C22.3897 16.671 22.199 16.75 22 16.75H14.811L15.53 17.47C15.6037 17.5387 15.6628 17.6215 15.7038 17.7135C15.7448 17.8055 15.7669 17.9048 15.7686 18.0055C15.7704 18.1062 15.7519 18.2062 15.7142 18.2996C15.6764 18.393 15.6203 18.4779 15.5491 18.5491C15.4779 18.6203 15.393 18.6764 15.2996 18.7142C15.2062 18.7519 15.1062 18.7704 15.0055 18.7686C14.9048 18.7668 14.8055 18.7448 14.7135 18.7038C14.6215 18.6628 14.5387 18.6037 14.47 18.53L12.47 16.53C12.3654 16.425 12.2942 16.2914 12.2654 16.1461C12.2366 16.0007 12.2514 15.85 12.308 15.713C12.346 15.6221 12.4009 15.5393 12.47 15.469L14.47 13.469C14.6122 13.3366 14.8003 13.2644 14.9946 13.2679C15.1889 13.2713 15.3742 13.35 15.5117 13.4874C15.6491 13.6248 15.7278 13.8102 15.7312 14.0045C15.7346 14.1988 15.6625 14.3869 15.53 14.529L14.811 15.249H22C22.0986 15.249 22.1962 15.2685 22.2873 15.3062C22.3783 15.344 22.4611 15.3993 22.5307 15.4691C22.6004 15.5388 22.6556 15.6216 22.6932 15.7127C22.7309 15.8038 22.7502 15.9015 22.75 16Z" fill="#0E72ED"/>
</svg>
