<svg width="20" height="21" viewBox="0 0 20 21" fill="none" xmlns="http://www.w3.org/2000/svg">
<g clip-path="url(#clip0_5654_12132)">
<path d="M13.3333 8.33294H6.66666V7.66627C6.66646 6.92721 6.91188 6.20903 7.36434 5.62465C7.8168 5.04028 8.45064 4.62284 9.16621 4.43798C9.88179 4.25311 10.6385 4.3113 11.3174 4.60339C11.9963 4.89549 12.5589 5.40492 12.9167 6.0516C12.9592 6.12817 13.0163 6.1956 13.0849 6.25007C13.1535 6.30454 13.2321 6.34497 13.3163 6.36905C13.4005 6.39313 13.4886 6.40039 13.5756 6.39042C13.6626 6.38045 13.7468 6.35344 13.8233 6.31094C13.8999 6.26843 13.9673 6.21127 14.0218 6.1427C14.0763 6.07413 14.1167 5.99551 14.1408 5.91131C14.1649 5.82712 14.1721 5.73901 14.1621 5.65201C14.1522 5.56502 14.1252 5.48083 14.0827 5.40427C13.5815 4.49915 12.7938 3.78622 11.8434 3.37755C10.8929 2.96888 9.83357 2.88764 8.83191 3.1466C7.83025 3.40557 6.94304 3.99005 6.30975 4.80817C5.67645 5.6263 5.33298 6.63168 5.33333 7.66627V8.6156C4.73957 8.87474 4.23419 9.30129 3.87899 9.84308C3.5238 10.3849 3.33418 11.0184 3.33333 11.6663V15.6663C3.33439 16.55 3.68592 17.3972 4.31081 18.0221C4.9357 18.647 5.78293 18.9985 6.66666 18.9996H13.3333C14.2171 18.9985 15.0643 18.647 15.6892 18.0221C16.3141 17.3972 16.6656 16.55 16.6667 15.6663V11.6663C16.6656 10.7825 16.3141 9.93531 15.6892 9.31042C15.0643 8.68553 14.2171 8.334 13.3333 8.33294ZM15.3333 15.6663C15.3333 16.1967 15.1226 16.7054 14.7475 17.0805C14.3725 17.4556 13.8638 17.6663 13.3333 17.6663H6.66666C6.13623 17.6663 5.62752 17.4556 5.25245 17.0805C4.87738 16.7054 4.66666 16.1967 4.66666 15.6663V11.6663C4.66666 11.1358 4.87738 10.6271 5.25245 10.2521C5.62752 9.87698 6.13623 9.66627 6.66666 9.66627H13.3333C13.8638 9.66627 14.3725 9.87698 14.7475 10.2521C15.1226 10.6271 15.3333 11.1358 15.3333 11.6663V15.6663Z" fill="white"/>
<path d="M9.99999 12.333C9.82318 12.333 9.65361 12.4032 9.52859 12.5283C9.40357 12.6533 9.33333 12.8229 9.33333 12.9997V14.333C9.33333 14.5098 9.40357 14.6794 9.52859 14.8044C9.65361 14.9294 9.82318 14.9997 9.99999 14.9997C10.1768 14.9997 10.3464 14.9294 10.4714 14.8044C10.5964 14.6794 10.6667 14.5098 10.6667 14.333V12.9997C10.6667 12.8229 10.5964 12.6533 10.4714 12.5283C10.3464 12.4032 10.1768 12.333 9.99999 12.333Z" fill="white"/>
</g>
<defs>
<clipPath id="clip0_5654_12132">
<rect width="16" height="16" fill="white" transform="translate(2 3)"/>
</clipPath>
</defs>
</svg>
