<svg width="32" height="32" viewBox="0 0 32 32" fill="none" xmlns="http://www.w3.org/2000/svg">
<g clip-path="url(#clip0_4374_4800)">
<path d="M0.436202 16.0415C0.0922137 16.1682 -0.0850926 16.5495 0.0402155 16.8948L0.458888 18.0468L3.64671 14.8589L0.436202 16.0415Z" fill="#008736"/>
<path d="M3.45361 26.2812L5.37355 31.5611C5.43354 31.7277 5.55885 31.8637 5.71885 31.9371C5.80816 31.9784 5.90415 31.9997 6.00015 31.9997C6.07883 31.9997 6.15614 31.9864 6.23083 31.9584L8.34944 31.1771L3.45361 26.2812Z" fill="#008736"/>
<path d="M31.9592 21.7733L29.7619 15.7322L24.4888 21.0053L27.102 20.0427C27.4447 19.912 27.8313 20.0906 27.958 20.4373C28.086 20.7826 27.9087 21.1666 27.5633 21.2933L24.2434 22.5173C24.1674 22.5453 24.0901 22.5586 24.0127 22.5586C23.7421 22.5586 23.4861 22.3919 23.3875 22.1226C23.3861 22.1186 23.3875 22.1146 23.3861 22.1106L17.7983 27.6984L31.5632 22.6266C31.9085 22.4999 32.0858 22.1186 31.9592 21.7733Z" fill="#008736"/>
<path d="M31.8045 10.8618L21.1382 0.195481C20.8782 -0.0645094 20.4555 -0.0645094 20.1955 0.195481L0.196214 20.1948C-0.063777 20.4548 -0.063777 20.8774 0.196214 21.1374L10.8625 31.8037C10.9918 31.9344 11.1625 31.9997 11.3332 31.9997C11.5039 31.9997 11.6745 31.9344 11.8052 31.8051L31.8045 11.8058C32.0645 11.5445 32.0645 11.1231 31.8045 10.8618ZM7.80532 18.4722L5.13873 21.1387C5.00804 21.2681 4.83743 21.3334 4.66674 21.3334C4.49606 21.3334 4.32544 21.2681 4.19476 21.1387C3.93477 20.8788 3.93477 20.4561 4.19476 20.1961L6.86135 17.5295C7.12135 17.2695 7.54402 17.2695 7.80401 17.5295C8.064 17.7896 8.06531 18.2108 7.80532 18.4722ZM19.3182 19.3188C18.8462 19.7908 18.205 20.0175 17.4916 20.0175C16.313 20.0175 14.9357 19.4002 13.7837 18.2468C12.9411 17.4042 12.3491 16.3962 12.1185 15.4096C11.8625 14.3097 12.0732 13.3524 12.7118 12.7124C13.3504 12.0724 14.3077 11.8618 15.409 12.1191C16.3956 12.3498 17.4036 12.9404 18.2462 13.7844C20.0982 15.6349 20.5702 18.0669 19.3182 19.3188ZM27.8046 11.8058L25.138 14.4724C25.0073 14.6017 24.8367 14.667 24.666 14.667C24.4954 14.667 24.3247 14.6017 24.1941 14.4724C23.9341 14.2124 23.9341 13.7897 24.1941 13.5297L26.8607 10.8631C27.1206 10.6031 27.5433 10.6031 27.8033 10.8631C28.0633 11.1231 28.0646 11.5445 27.8046 11.8058Z" fill="#008736"/>
</g>
<defs>
<clipPath id="clip0_4374_4800">
<rect width="32" height="32" fill="white"/>
</clipPath>
</defs>
</svg>
