<svg width="20" height="20" viewBox="0 0 20 20" fill="none" xmlns="http://www.w3.org/2000/svg">
<g clip-path="url(#clip0_4851_12717)">
<path d="M5.62533 4.58335C5.16533 4.58335 4.79199 4.21002 4.79199 3.75002V0.833349C4.79199 0.373349 5.16533 1.52588e-05 5.62533 1.52588e-05C6.08533 1.52588e-05 6.45866 0.373349 6.45866 0.833349V3.75002C6.45866 4.21002 6.08533 4.58335 5.62533 4.58335Z" fill="black"/>
<path d="M9.58333 4.58335C9.12333 4.58335 8.75 4.21002 8.75 3.75002V0.833349C8.75 0.373349 9.12333 1.52588e-05 9.58333 1.52588e-05C10.0433 1.52588e-05 10.4167 0.373349 10.4167 0.833349V3.75002C10.4167 4.21002 10.0433 4.58335 9.58333 4.58335Z" fill="black"/>
<path d="M13.5413 4.58335C13.0813 4.58335 12.708 4.21002 12.708 3.75002V0.833349C12.708 0.373349 13.0813 1.52588e-05 13.5413 1.52588e-05C14.0013 1.52588e-05 14.3747 0.373349 14.3747 0.833349V3.75002C14.3747 4.21002 14.0013 4.58335 13.5413 4.58335Z" fill="black"/>
<path d="M15.2087 1.87502H3.95866C2.69449 1.87502 1.66699 2.90252 1.66699 4.16668V17.7083C1.66699 18.9725 2.69449 20 3.95866 20H15.2087C16.4728 20 17.5003 18.9725 17.5003 17.7083V4.16668C17.5003 2.90252 16.4728 1.87502 15.2087 1.87502ZM5.83366 6.66668H10.0003C10.4603 6.66668 10.8337 7.04002 10.8337 7.50002C10.8337 7.96002 10.4603 8.33335 10.0003 8.33335H5.83366C5.37366 8.33335 5.00033 7.96002 5.00033 7.50002C5.00033 7.04002 5.37366 6.66668 5.83366 6.66668ZM14.167 15H5.83366C5.37366 15 5.00033 14.6267 5.00033 14.1667C5.00033 13.7067 5.37366 13.3333 5.83366 13.3333H14.167C14.627 13.3333 15.0003 13.7067 15.0003 14.1667C15.0003 14.6267 14.627 15 14.167 15ZM14.167 11.6667H5.83366C5.37366 11.6667 5.00033 11.2933 5.00033 10.8333C5.00033 10.3733 5.37366 10 5.83366 10H14.167C14.627 10 15.0003 10.3733 15.0003 10.8333C15.0003 11.2933 14.627 11.6667 14.167 11.6667Z" fill="black"/>
</g>
<defs>
<clipPath id="clip0_4851_12717">
<rect width="20" height="20" fill="white"/>
</clipPath>
</defs>
</svg>
