<svg width="32" height="33" viewBox="0 0 32 33" fill="none" xmlns="http://www.w3.org/2000/svg">
<path fill-rule="evenodd" clip-rule="evenodd" d="M26 5.5C26 4.704 25.684 3.941 25.121 3.379C24.559 2.816 23.796 2.5 23 2.5C19.537 2.5 12.463 2.5 9 2.5C8.204 2.5 7.441 2.816 6.879 3.379C6.316 3.941 6 4.704 6 5.5V29.5C6 29.904 6.244 30.269 6.617 30.424C6.991 30.579 7.421 30.493 7.707 30.207L9.966 27.949L11.987 30.173C12.166 30.369 12.416 30.487 12.682 30.499C12.947 30.511 13.207 30.417 13.403 30.237L16 27.857L18.597 30.237C18.793 30.417 19.053 30.511 19.318 30.499C19.584 30.487 19.834 30.369 20.013 30.173L22.034 27.949L24.293 30.207C24.579 30.493 25.009 30.579 25.383 30.424C25.756 30.269 26 29.904 26 29.5V5.5ZM12 22.5H20C20.552 22.5 21 22.052 21 21.5C21 20.948 20.552 20.5 20 20.5H12C11.448 20.5 11 20.948 11 21.5C11 22.052 11.448 22.5 12 22.5ZM12 16.5H20C20.552 16.5 21 16.052 21 15.5C21 14.948 20.552 14.5 20 14.5H12C11.448 14.5 11 14.948 11 15.5C11 16.052 11.448 16.5 12 16.5ZM12 10.5H20C20.552 10.5 21 10.052 21 9.5C21 8.948 20.552 8.5 20 8.5H12C11.448 8.5 11 8.948 11 9.5C11 10.052 11.448 10.5 12 10.5Z" fill="white"/>
</svg>
