<svg width="20" height="20" viewBox="0 0 20 20" fill="none" xmlns="http://www.w3.org/2000/svg">
<path d="M13.7533 14.9462C14.0139 15.3744 14.0921 15.8775 13.9733 16.3644C13.8552 16.8506 13.5539 17.2625 13.1258 17.5231L11.5733 18.4681C11.2752 18.6494 10.9408 18.7406 10.6039 18.7406C10.3014 18.7406 9.99645 18.6675 9.71332 18.52C6.45332 16.8294 4.59207 14.3187 3.7727 12.9731C1.95707 9.99062 1.57582 7.05187 1.5752 5.1125C1.5752 4.45875 1.91145 3.8625 2.4752 3.51875L4.02832 2.57375C4.45582 2.31312 4.95895 2.235 5.44645 2.35375C5.9327 2.47187 6.34457 2.7725 6.60457 3.20062L7.57957 4.80187C8.11707 5.68562 7.83582 6.84125 6.9527 7.37875L6.14832 7.86812C5.90707 8.015 5.78957 8.31 5.8702 8.56875C6.13582 9.42812 6.50832 10.2537 6.97645 11.0231C7.44332 11.79 8.0052 12.4987 8.6452 13.13C8.84332 13.325 9.1527 13.3569 9.39832 13.2075L10.2021 12.7181C11.0839 12.1794 12.2408 12.4612 12.7789 13.3444L13.7539 14.9462H13.7533ZM10.0558 7.43375C11.4183 7.64375 12.3552 8.92375 12.1452 10.2856C12.0927 10.6269 12.3264 10.9462 12.6677 10.9987C12.7002 11.0037 12.7321 11.0062 12.7639 11.0062C13.0671 11.0062 13.3333 10.785 13.3808 10.4762C13.6958 8.4325 12.2902 6.51375 10.2471 6.19812C9.90645 6.14687 9.58645 6.37937 9.53395 6.72C9.48145 7.06125 9.7152 7.38062 10.0558 7.43312V7.43375ZM10.6277 3.7275C10.2896 3.675 9.96707 3.90875 9.91457 4.25C9.86207 4.59062 10.0958 4.91 10.4371 4.96312C11.7571 5.16687 12.9183 5.8725 13.7077 6.95C14.4971 8.0275 14.8196 9.3475 14.6158 10.6675C14.5633 11.0081 14.7971 11.3275 15.1383 11.3806C15.1702 11.3856 15.2027 11.3881 15.2346 11.3881C15.5377 11.3881 15.8039 11.1669 15.8514 10.8581C16.1064 9.20812 15.7033 7.55812 14.7164 6.21125C13.7296 4.86437 12.2777 3.9825 10.6277 3.7275ZM11.0089 1.25687C10.6689 1.20625 10.3483 1.43812 10.2958 1.77937C10.2433 2.12 10.4771 2.43937 10.8183 2.4925C14.9052 3.12312 17.7171 6.96125 17.0864 11.0487C17.0339 11.3894 17.2677 11.7087 17.6089 11.7619C17.6408 11.7669 17.6733 11.7694 17.7052 11.7694C18.0083 11.7694 18.2746 11.5481 18.3221 11.2394C19.0583 6.47125 15.7777 1.99375 11.0089 1.2575V1.25687Z" fill="#BABABA"/>
</svg>
