<svg width="12" height="12" viewBox="0 0 12 12" fill="none" xmlns="http://www.w3.org/2000/svg">
<path d="M5.98799 0.163272C6.15351 0.16231 6.31557 0.210661 6.4535 0.302162C6.59144 0.393662 6.699 0.524167 6.76247 0.677037C6.82594 0.829906 6.84245 0.998216 6.80989 1.16051C6.77733 1.32279 6.69718 1.47171 6.57966 1.58827L2.16299 5.99661L6.57966 10.4049C6.71618 10.5644 6.78752 10.7694 6.77942 10.9792C6.77132 11.1889 6.68437 11.3878 6.53596 11.5362C6.38755 11.6847 6.1886 11.7716 5.97887 11.7797C5.76914 11.7878 5.56408 11.7165 5.40466 11.5799L0.404658 6.57994C0.249448 6.4238 0.162331 6.21259 0.162331 5.99244C0.162331 5.77228 0.249448 5.56107 0.404658 5.40494L5.40466 0.40494C5.55988 0.250986 5.76938 0.164192 5.98799 0.163272Z" fill="black"/>
<path d="M10.988 0.163272C11.1535 0.16231 11.3156 0.210661 11.4535 0.302162C11.5914 0.393662 11.699 0.524167 11.7625 0.677037C11.8259 0.829906 11.8424 0.998216 11.8099 1.16051C11.7773 1.32279 11.6972 1.47171 11.5797 1.58827L7.16299 5.99661L11.5797 10.4049C11.7366 10.5619 11.8247 10.7747 11.8247 10.9966C11.8247 11.2185 11.7366 11.4314 11.5797 11.5883C11.4227 11.7452 11.2099 11.8333 10.988 11.8333C10.7661 11.8333 10.5532 11.7452 10.3963 11.5883L5.39632 6.58827C5.24112 6.43214 5.154 6.22093 5.154 6.00077C5.154 5.78062 5.24112 5.56941 5.39632 5.41327L10.3963 0.413271C10.4735 0.334531 10.5655 0.271891 10.6671 0.228977C10.7687 0.186063 10.8777 0.16373 10.988 0.163272Z" fill="black"/>
</svg>
