<svg width="25" height="24" viewBox="0 0 25 24" fill="none" xmlns="http://www.w3.org/2000/svg">
<g clip-path="url(#clip0_4508_17697)">
<path d="M19.5 4C19.5 2.93913 19.0786 1.92172 18.3284 1.17157C17.5783 0.421427 16.5609 0 15.5 0L9.5 0C8.43913 0 7.42172 0.421427 6.67157 1.17157C5.92143 1.92172 5.5 2.93913 5.5 4V5H19.5V4Z" fill="black"/>
<path d="M16.5 15H8.5C6.84315 15 5.5 16.3431 5.5 18V21C5.5 22.6569 6.84315 24 8.5 24H16.5C18.1569 24 19.5 22.6569 19.5 21V18C19.5 16.3431 18.1569 15 16.5 15Z" fill="black"/>
<path d="M19.5 7H5.5C4.17441 7.00159 2.90356 7.52888 1.96622 8.46622C1.02888 9.40356 0.501588 10.6744 0.5 12L0.5 16C0.501278 16.9718 0.785705 17.9221 1.3185 18.7348C1.85129 19.5475 2.60936 20.1873 3.5 20.576V18C3.50159 16.6744 4.02888 15.4036 4.96622 14.4662C5.90356 13.5289 7.17441 13.0016 8.5 13H16.5C17.8256 13.0016 19.0964 13.5289 20.0338 14.4662C20.9711 15.4036 21.4984 16.6744 21.5 18V20.576C22.3906 20.1873 23.1487 19.5475 23.6815 18.7348C24.2143 17.9221 24.4987 16.9718 24.5 16V12C24.4984 10.6744 23.9711 9.40356 23.0338 8.46622C22.0964 7.52888 20.8256 7.00159 19.5 7ZM18.5 11H16.5C16.2348 11 15.9804 10.8946 15.7929 10.7071C15.6054 10.5196 15.5 10.2652 15.5 10C15.5 9.73478 15.6054 9.48043 15.7929 9.29289C15.9804 9.10536 16.2348 9 16.5 9H18.5C18.7652 9 19.0196 9.10536 19.2071 9.29289C19.3946 9.48043 19.5 9.73478 19.5 10C19.5 10.2652 19.3946 10.5196 19.2071 10.7071C19.0196 10.8946 18.7652 11 18.5 11Z" fill="black"/>
</g>
<defs>
<clipPath id="clip0_4508_17697">
<rect width="24" height="24" fill="white" transform="translate(0.5)"/>
</clipPath>
</defs>
</svg>
