<svg width="16" height="16" viewBox="0 0 16 16" fill="none" xmlns="http://www.w3.org/2000/svg">
<g clip-path="url(#clip0_5232_10044)">
<path d="M14.1454 5.93508C13.8751 5.66384 13.5536 5.44891 13.1997 5.30272C12.8457 5.15654 12.4663 5.082 12.0833 5.08342H2.63331L5.14165 2.57508C5.25087 2.46539 5.31205 2.31681 5.31172 2.16201C5.31139 2.00722 5.24959 1.85889 5.1399 1.74967C5.03021 1.64044 4.88162 1.57926 4.72683 1.57959C4.57203 1.57992 4.42371 1.64173 4.31448 1.75142L1.42698 4.63833C1.15358 4.91181 1 5.28268 1 5.66937C1 6.05607 1.15358 6.42694 1.42698 6.70042L4.31448 9.5885C4.36864 9.64281 4.43297 9.68593 4.50379 9.71538C4.57461 9.74483 4.65054 9.76005 4.72724 9.76015C4.80394 9.76026 4.87991 9.74526 4.95082 9.71601C5.02172 9.68676 5.08617 9.64383 5.14048 9.58967C5.19479 9.53551 5.23791 9.47118 5.26736 9.40036C5.29681 9.32954 5.31203 9.25361 5.31213 9.17691C5.31224 9.10021 5.29724 9.02424 5.26799 8.95333C5.23874 8.88243 5.19581 8.81798 5.14165 8.76367L2.62631 6.25008H12.0833C12.5474 6.25008 12.9926 6.43446 13.3208 6.76265C13.6489 7.09083 13.8333 7.53595 13.8333 8.00008V12.0834C13.8333 12.5475 13.6489 12.9927 13.3208 13.3209C12.9926 13.649 12.5474 13.8334 12.0833 13.8334H3.91665C3.76194 13.8334 3.61356 13.8949 3.50417 14.0043C3.39477 14.1137 3.33331 14.262 3.33331 14.4167C3.33331 14.5715 3.39477 14.7198 3.50417 14.8292C3.61356 14.9386 3.76194 15.0001 3.91665 15.0001H12.0833C12.8566 14.9992 13.5979 14.6916 14.1447 14.1448C14.6915 13.598 14.9991 12.8567 15 12.0834V8.00008C15.0013 7.61645 14.9264 7.23638 14.7797 6.88191C14.633 6.52743 14.4174 6.20561 14.1454 5.93508Z" fill="#242133"/>
</g>
<defs>
<clipPath id="clip0_5232_10044">
<rect width="14" height="14" fill="white" transform="translate(1 1)"/>
</clipPath>
</defs>
</svg>
