<svg width="28" height="28" viewBox="0 0 28 28" fill="none" xmlns="http://www.w3.org/2000/svg">
<path d="M12.8801 20.1601C8.8481 20.1601 5.6001 16.9121 5.6001 12.8801C5.6001 8.84813 8.8481 5.60013 12.8801 5.60013C16.9121 5.60013 20.1601 8.84813 20.1601 12.8801C20.1601 16.9121 16.9121 20.1601 12.8801 20.1601ZM12.8801 6.72013C9.4641 6.72013 6.7201 9.46413 6.7201 12.8801C6.7201 16.2961 9.4641 19.0401 12.8801 19.0401C16.2961 19.0401 19.0401 16.2961 19.0401 12.8801C19.0401 9.46413 16.2961 6.72013 12.8801 6.72013Z" fill="#061020"/>
<path d="M18.3021 17.5094L23.3309 22.5382L22.5391 23.33L17.5103 18.3012L18.3021 17.5094Z" fill="#061020"/>
</svg>
