<svg width="32" height="32" viewBox="0 0 32 32" fill="none" xmlns="http://www.w3.org/2000/svg">
<path d="M14.7204 23.0404C10.1124 23.0404 6.40039 19.3284 6.40039 14.7204C6.40039 10.1124 10.1124 6.40039 14.7204 6.40039C19.3284 6.40039 23.0404 10.1124 23.0404 14.7204C23.0404 19.3284 19.3284 23.0404 14.7204 23.0404ZM14.7204 7.68039C10.8164 7.68039 7.68039 10.8164 7.68039 14.7204C7.68039 18.6244 10.8164 21.7604 14.7204 21.7604C18.6244 21.7604 21.7604 18.6244 21.7604 14.7204C21.7604 10.8164 18.6244 7.68039 14.7204 7.68039Z" fill="white"/>
<path d="M20.9167 20.0107L26.6639 25.7579L25.7589 26.6629L20.0117 20.9157L20.9167 20.0107Z" fill="white"/>
</svg>
