<svg width="20" height="20" viewBox="0 0 20 20" fill="none" xmlns="http://www.w3.org/2000/svg">
<path fill-rule="evenodd" clip-rule="evenodd" d="M10.4956 13.7262L13.6627 16.8933C13.972 17.2025 14.4732 17.2025 14.7824 16.8933L17.9496 13.7262C18.2588 13.4169 18.2588 12.9157 17.9496 12.6065C17.6404 12.2972 17.1391 12.2972 16.8299 12.6065L15.0144 14.4219V3.66484C15.0144 3.22755 14.6599 2.87305 14.2226 2.87305C13.7853 2.87305 13.4308 3.22755 13.4308 3.66484V14.4219L11.6153 12.6065C11.3061 12.2972 10.8048 12.2972 10.4956 12.6065C10.1864 12.9157 10.1864 13.4169 10.4956 13.7262ZM6.3367 3.10496C6.02749 2.79575 5.52615 2.79575 5.21694 3.10496L2.04978 6.27212C1.74057 6.58133 1.74057 7.08267 2.04978 7.39188C2.35899 7.70109 2.86033 7.70109 3.16954 7.39188L4.98503 5.57639V16.3335C4.98503 16.7708 5.33953 17.1253 5.77682 17.1253C6.21411 17.1253 6.56861 16.7708 6.56861 16.3335V5.57639L8.38413 7.39188C8.69335 7.70109 9.19461 7.70109 9.50383 7.39188C9.81305 7.08267 9.81305 6.58133 9.50383 6.27212L6.3367 3.10496Z" fill="#0E72ED"/>
</svg>
