<svg width="32" height="32" viewBox="0 0 32 32" fill="none" xmlns="http://www.w3.org/2000/svg">
<path d="M31.0325 8.11594C30.1931 5.02344 26.9769 1.80719 23.8844 0.967812C21.9887 0.494687 19.4481 0.00781219 16 -0.000312805C12.5525 0.00843719 10.0119 0.494687 8.11625 0.967812C5.02375 1.80781 1.8075 5.02344 0.968125 8.11594C0.495 10.0116 0.00875 12.5522 0 15.9997C0.00875 19.4478 0.495 21.9884 0.968125 23.8841C1.8075 26.9766 5.02375 30.1922 8.11625 31.0322C10.0119 31.5053 12.5538 31.9916 16 32.0003C19.4481 31.9916 21.9887 31.5053 23.8844 31.0322C26.9769 30.1922 30.1931 26.9766 31.0325 23.8841C31.5056 21.9884 31.9919 19.4466 32.0006 15.9997C31.9919 12.5522 31.5056 10.0116 31.0325 8.11594Z" fill="#F2EEFF"/>
<path d="M6.83366 12.9216C7.53241 12.1653 8.40053 11.2622 9.46616 10.1853C11.1537 8.48159 12.4124 7.27597 13.3512 6.44409C14.1312 5.74972 15.0693 5.39847 15.9999 5.39659C16.9293 5.39659 17.8674 5.75222 18.6474 6.44409C19.5849 7.27597 20.8462 8.48159 22.5324 10.1853C23.598 11.2622 24.4662 12.1653 25.1649 12.9216L25.2205 15.8866C25.2262 16.2697 25.2274 16.7416 25.2237 17.166C25.2199 17.5135 25.2134 17.8468 25.2043 18.166C25.171 19.5628 25.0617 20.9567 24.8768 22.3416C24.583 24.3703 22.8768 26.1191 20.903 26.4041C20.3468 26.4822 19.6955 26.5541 18.9337 26.6097C18.9337 26.6097 17.4918 26.6153 15.9999 26.6153C14.508 26.6153 13.0662 26.6097 13.0662 26.6097C12.3043 26.5541 11.653 26.4847 11.0968 26.4041C9.12491 26.1203 7.41553 24.3747 7.12491 22.3428C6.93997 20.9579 6.83065 19.564 6.79741 18.1672C6.78824 17.8472 6.78178 17.5139 6.77803 17.1672C6.77428 16.7428 6.77803 16.271 6.77803 15.8878L6.83366 12.9216Z" fill="url(#paint0_linear_4540_9754)"/>
<path d="M26.6338 10.7286V10.7211C26.6338 10.6083 26.5947 10.499 26.5231 10.4118C26.4935 10.3747 26.4629 10.3384 26.4312 10.303C26.2644 10.1155 26.0669 9.90739 25.8319 9.66927C25.4287 9.25927 24.9131 8.76552 24.2619 8.16614C23.23 7.21677 22.4419 6.52802 21.8719 6.05239C21.3956 5.65614 20.8669 5.44364 20.3719 5.43177C17.4602 5.36677 14.5483 5.36677 11.6362 5.43177C11.1394 5.44364 10.6106 5.65614 10.1362 6.05239C9.56625 6.52802 8.77813 7.21677 7.74625 8.16614C7.095 8.76552 6.57938 9.25927 6.17625 9.66927C5.94187 9.90739 5.74437 10.1174 5.5775 10.303C5.545 10.3384 5.51437 10.3747 5.48562 10.4118C5.41406 10.499 5.37497 10.6083 5.375 10.7211V10.7424C5.40468 11.3224 5.46603 11.9003 5.55875 12.4736C5.70188 13.468 6.75 14.3286 7.73313 14.3743C8.29563 14.3986 8.73875 14.1486 9.00438 13.7355C9.115 13.563 9.38375 13.5699 9.54688 13.7505C9.93937 14.1836 10.4844 14.4724 11.0469 14.4874C11.3059 14.4949 11.5626 14.437 11.7934 14.319C12.0241 14.2011 12.2213 14.0268 12.3669 13.8124C12.4919 13.6349 12.7587 13.638 12.9087 13.8199C13.27 14.2574 13.7894 14.5405 14.3512 14.5455C14.6213 14.5452 14.8876 14.4811 15.1282 14.3585C15.3689 14.2359 15.5772 14.0582 15.7362 13.8399C15.7678 13.7977 15.8087 13.7635 15.8558 13.7399C15.9029 13.7163 15.9548 13.7041 16.0075 13.7041C16.0602 13.7041 16.1121 13.7163 16.1592 13.7399C16.2063 13.7635 16.2472 13.7977 16.2787 13.8399C16.4377 14.0582 16.6461 14.2359 16.8867 14.3584C17.1274 14.4809 17.3937 14.5448 17.6637 14.5449C18.2225 14.5405 18.7394 14.2586 19.1012 13.8268C19.2506 13.6474 19.5169 13.6436 19.6406 13.8193C19.787 14.0333 19.9851 14.207 20.2165 14.3241C20.4479 14.4412 20.7052 14.498 20.9644 14.4893C21.5269 14.4743 22.0706 14.1855 22.4644 13.7524C22.6275 13.5718 22.8962 13.5649 23.0069 13.7374C23.2719 14.1505 23.7156 14.4005 24.2781 14.3761C25.2613 14.3305 26.3094 13.4699 26.4525 12.4755C26.5445 11.9066 26.6054 11.333 26.635 10.7574C26.6331 10.7499 26.6338 10.738 26.6338 10.7286Z" fill="url(#paint1_linear_4540_9754)"/>
<path d="M19.6876 19.4424C18.4482 20.7186 17.1738 22.0549 15.9257 23.3743C15.8244 23.482 15.7021 23.5678 15.5663 23.6263C15.4305 23.6849 15.2842 23.7151 15.1363 23.7149H15.1313C14.9838 23.7135 14.838 23.6827 14.7025 23.6243C14.5669 23.5659 14.4444 23.4811 14.342 23.3749C13.6732 22.683 13.0001 21.9924 12.3313 21.3124C12.2295 21.2113 12.1492 21.0907 12.0952 20.9578C12.0412 20.8249 12.0147 20.6824 12.0173 20.539C12.0198 20.3956 12.0514 20.2541 12.1101 20.1232C12.1688 19.9923 12.2534 19.8747 12.3588 19.7774C12.5677 19.5723 12.8492 19.4581 13.1419 19.4597C13.4346 19.4614 13.7148 19.5787 13.9213 19.7861C14.3188 20.1928 14.7178 20.6026 15.1182 21.0155C16.1101 19.9743 17.1063 18.9255 18.0763 17.9068C18.4882 17.473 19.177 17.478 19.6251 17.9068C20.0732 18.3355 20.1057 19.0143 19.6876 19.4424Z" fill="url(#paint2_linear_4540_9754)"/>
<path d="M5.48313 10.4137C5.41252 10.5012 5.37432 10.6105 5.37501 10.723V10.7443C5.40407 11.3241 5.46542 11.9019 5.55876 12.4749C5.70188 13.4687 6.74626 14.3287 7.73188 14.3743C8.29438 14.3987 8.73751 14.1487 9.00251 13.7355C9.11313 13.5637 9.38188 13.5705 9.54438 13.7512C9.93751 14.1837 10.4819 14.4724 11.0444 14.4874C11.3041 14.4957 11.5616 14.4381 11.7931 14.3201C12.0245 14.2021 12.2223 14.0274 12.3681 13.8124C12.4931 13.6343 12.7606 13.638 12.9106 13.8199C13.2713 14.2574 13.79 14.5399 14.3519 14.5449C14.6218 14.5445 14.8879 14.4805 15.1284 14.358C15.369 14.2355 15.5772 14.058 15.7363 13.8399C15.7678 13.7977 15.8087 13.7635 15.8558 13.7399C15.9029 13.7163 15.9548 13.7041 16.0075 13.7041C16.0602 13.7041 16.1121 13.7163 16.1592 13.7399C16.2063 13.7635 16.2472 13.7977 16.2788 13.8399C16.4377 14.058 16.646 14.2355 16.8866 14.3579C17.1271 14.4803 17.3932 14.5442 17.6631 14.5443C18.2219 14.5399 18.7381 14.258 19.1006 13.8268C19.25 13.6468 19.5163 13.6437 19.6394 13.8187C19.7857 14.0327 19.9836 14.2064 20.2149 14.3235C20.4462 14.4406 20.7034 14.4974 20.9625 14.4887C21.525 14.4737 22.0681 14.1849 22.4625 13.7524C22.6256 13.5718 22.8944 13.5649 23.005 13.7368C23.27 14.1499 23.7131 14.3999 24.2756 14.3755C25.2581 14.3299 26.3056 13.4699 26.4488 12.4762C26.5387 11.9073 26.5975 11.3339 26.625 10.7587C26.625 10.7493 26.625 10.7399 26.625 10.7305V10.723C26.625 10.6102 26.5859 10.5009 26.5144 10.4137H5.48313Z" fill="url(#paint3_linear_4540_9754)"/>
<defs>
<linearGradient id="paint0_linear_4540_9754" x1="23.2255" y1="25.3241" x2="8.77491" y2="10.8735" gradientUnits="userSpaceOnUse">
<stop stop-color="#6F2EFE"/>
<stop offset="0.52" stop-color="#6F2EFE"/>
<stop offset="1" stop-color="#AE90FF"/>
</linearGradient>
<linearGradient id="paint1_linear_4540_9754" x1="21.9087" y1="17.5611" x2="10.0925" y2="5.74489" gradientUnits="userSpaceOnUse">
<stop stop-color="#FE7838"/>
<stop offset="0.54" stop-color="#FE7636"/>
<stop offset="1" stop-color="#FFAD8A"/>
</linearGradient>
<linearGradient id="paint2_linear_4540_9754" x1="17.8226" y1="21.4786" x2="14.2395" y2="17.8955" gradientUnits="userSpaceOnUse">
<stop stop-color="#E0DCFF"/>
<stop offset="0.57" stop-color="white"/>
<stop offset="1" stop-color="white"/>
</linearGradient>
<linearGradient id="paint3_linear_4540_9754" x1="19.8488" y1="15.5287" x2="8.06438" y2="3.74428" gradientUnits="userSpaceOnUse">
<stop stop-color="#FE7838"/>
<stop offset="0.54" stop-color="#FE7636"/>
<stop offset="1" stop-color="#FFAD8A"/>
</linearGradient>
</defs>
</svg>
