<svg width="20" height="20" viewBox="0 0 20 20" fill="none" xmlns="http://www.w3.org/2000/svg">
<path d="M17.5 4.99984H4.16667C3.45083 4.99984 2.77333 4.68984 2.30417 4.16734C2.7625 3.65567 3.42833 3.33317 4.16667 3.33317H19.1667C20.2567 3.32817 20.2558 1.67067 19.1667 1.6665H4.16667C1.86583 1.6665 0 3.53234 0 5.83317V14.1665C0 16.4673 1.86583 18.3332 4.16667 18.3332H17.5C18.8808 18.3332 20 17.214 20 15.8332V7.49984C20 6.119 18.8808 4.99984 17.5 4.99984ZM16.6667 12.4998C15.5767 12.4948 15.5767 10.8382 16.6667 10.8332C17.7567 10.8382 17.7567 12.4948 16.6667 12.4998Z" fill="black"/>
</svg>
