<svg width="20" height="21" viewBox="0 0 20 21" fill="none" xmlns="http://www.w3.org/2000/svg">
<g clip-path="url(#clip0_6477_2528)">
<path d="M10 11C10.7911 11 11.5645 10.7654 12.2223 10.3259C12.8801 9.88635 13.3928 9.26164 13.6955 8.53074C13.9983 7.79983 14.0775 6.99556 13.9231 6.21964C13.7688 5.44372 13.3878 4.73098 12.8284 4.17157C12.269 3.61216 11.5563 3.2312 10.7804 3.07686C10.0044 2.92252 9.20017 3.00173 8.46927 3.30448C7.73836 3.60723 7.11365 4.11992 6.67412 4.77772C6.2346 5.43552 6 6.20888 6 7C6.00106 8.06054 6.42283 9.07734 7.17274 9.82726C7.92266 10.5772 8.93946 10.9989 10 11ZM10 4.33334C10.5274 4.33334 11.043 4.48973 11.4815 4.78275C11.9201 5.07577 12.2618 5.49224 12.4637 5.97951C12.6655 6.46678 12.7183 7.00296 12.6154 7.52024C12.5125 8.03753 12.2586 8.51268 11.8856 8.88562C11.5127 9.25856 11.0375 9.51254 10.5202 9.61543C10.003 9.71832 9.46678 9.66551 8.97951 9.46368C8.49224 9.26185 8.07577 8.92005 7.78275 8.48152C7.48973 8.04299 7.33333 7.52742 7.33333 7C7.33333 6.29276 7.61428 5.61448 8.11438 5.11438C8.61448 4.61429 9.29276 4.33334 10 4.33334Z" fill="white"/>
<path d="M10 12.334C8.40924 12.3357 6.88414 12.9685 5.75931 14.0933C4.63447 15.2181 4.00176 16.7432 4 18.334C4 18.5108 4.07024 18.6804 4.19526 18.8054C4.32029 18.9304 4.48986 19.0007 4.66667 19.0007C4.84348 19.0007 5.01305 18.9304 5.13807 18.8054C5.2631 18.6804 5.33333 18.5108 5.33333 18.334C5.33333 17.0963 5.825 15.9093 6.70017 15.0342C7.57534 14.159 8.76232 13.6673 10 13.6673C11.2377 13.6673 12.4247 14.159 13.2998 15.0342C14.175 15.9093 14.6667 17.0963 14.6667 18.334C14.6667 18.5108 14.7369 18.6804 14.8619 18.8054C14.987 18.9304 15.1565 19.0007 15.3333 19.0007C15.5101 19.0007 15.6797 18.9304 15.8047 18.8054C15.9298 18.6804 16 18.5108 16 18.334C15.9982 16.7432 15.3655 15.2181 14.2407 14.0933C13.1159 12.9685 11.5908 12.3357 10 12.334Z" fill="white"/>
</g>
<defs>
<clipPath id="clip0_6477_2528">
<rect width="16" height="16" fill="white" transform="translate(2 3)"/>
</clipPath>
</defs>
</svg>
